<?xml version="1.0" encoding="utf-8"?>
<!-- Generator: Adobe Illustrator 22.0.1, SVG Export Plug-In . SVG Version: 6.00 Build 0)  -->
<svg version="1.1" xmlns="http://www.w3.org/2000/svg" xmlns:xlink="http://www.w3.org/1999/xlink" x="0px" y="0px"
	 viewBox="0 0 678 526.9" style="enable-background:new 0 0 678 526.9;" xml:space="preserve">
<style type="text/css">
	.st0{fill:#204C99;}
	.st1{fill:#F39A84;}
	.st2{fill:#EFDDC2;}
	.st3{fill:#C1692A;}
	.st4{fill:#FF7F61;}
	.st5{fill:#896741;}
	.st6{fill:#2F5CC1;}
	.st7{fill:#FFAA3B;}
	.st8{fill:#FFFFFF;}
	.st9{fill:#606060;}
	.st10{fill:#664229;}
	.st11{fill:#6D4A2D;}
	.st12{fill:#231F20;}
	.st13{fill:#202C4C;}
	.st14{fill:#AA6007;}
	.st15{fill:#BC4453;}
	.st16{fill:#58595B;}
</style>
<g id="Слой_33">
	<path class="st0" d="M137.5,187c0.2,0.5,7.1,13.2,7.1,13.2l2.4,14.5c0,0-9.7-2.4-11.6-7.4C133.5,202.2,137.5,187,137.5,187z"/>
	<path class="st1" d="M48.5,68.5c-2.7-7.1-11.4-8.8-17.5-7.8c-3.9,0.6-7.3,2.7-11,4.1s-8.2,1.7-11.1-0.8c3.1,1.4,5,4.6,6.4,7.8
		c2,4.7,3.6,9.5,5.3,14.3c2.8,8,7.7,13.3,20.1,11.3"/>
	<path class="st2" d="M518.6,305.1c0,0-16.6-0.7-49.1,6.7c-32.4,7.3-62.8,17.8-95,24.4s-59.3-4.9-74.4-6
		c-15.1-1.1-36.6,4.4-37.3,4.7l27.3-3.6c0,0-10.7,26.2-10,39.3c0.7,13.1,0.9,23.1-2.2,42.4c-3.1,19.3,4.9,41.3,3.6,49.9
		c-1.3,8.7-9.1,15.8-10,18c-0.9,2.2-6.4,15.5-6.4,15.5s-6,0.7-12.4-1.3s-7.1-4.2-7.1-4.2c9.3-12,14.2-39.5,14.2-54.8
		s-3.1-16.6-6.9-29.7c-3.8-13.1-8-35.5-8-35.5l32.4-104.6c0,0,1.3,28-4.9,46.4c-6.2,18.4-26.4,52.2-32.6,64.6
		c-6.2,12.4-9.5,27.1-10.2,32.4c-0.7,5.3-11.5,25.5-13.5,28.6c-2,3.1-3.1,10.2-3.6,16.2s-4,27.3-5.5,32.2
		c-1.6,4.9-3.3,13.5-4.7,16.2s-7.1,9.1-8.2,9.3l-1.8,0.4l-7.3,13.5c0,0-6.7,1.1-12.4-1.1c-5.8-2.2-8-4.9-8-4.9s5.1-7.5,9.8-15.8
		c4.7-8.2,11.8-25.1,16.6-45.3c4.9-20.2,4.7-47.3,4.9-59.7c0.2-12.4,0.9-24.6,3.6-31.1c2.7-6.4,0.7-12-4.4-55.1s0.7-61.9,1.8-69
		l-0.9,87.5c0,0-21.3-26.6-28.6-50.8c-7.3-24.2-6-26.9-16.2-61.5c-0.6-2-1.2-4-1.8-5.8l-6.4-16.2c-0.3-0.7-0.7-1.4-1-2.1
		c-8.5-17.4-17.2-25.3-19.1-26.9l9.9-51.5c0,0,8,13.3,8.3,29.3c0.3,16-20.6,24.3-34.6,25.3S77.3,173.3,71,176l1-0.5
		c-23.3,20.3-39,6-42.6,6s-13.3,4.3-17.3,4c-4-0.3-0.3-10.3,0.7-11.7c1-1.3-3-4.7-6-9c-3-4.3-7-13.7-2.7-20.6c4.3-7,14.7-8,29-18.6
		s10.3-33,10.3-37.3l0,11.9c-2.5-3.7-5.1-7.5-6.3-11.7s-0.9-9.3,1.8-12.8c2.6-3.3,6.8-4.8,10.6-6.6c4.4-2.1,8.4-4.7,12.1-7.9
		c1.6-1.4,3.3-3.2,3.4-5.3l2.4-1.6c-1.5,1.3-3.9,1.5-5.5,0.3c0.2-2.5,2.2-4.6,4.5-5.5c2.3-0.9,4.9-0.9,7.5-0.7
		c-3.7-1.3-6.8-4.4-7.9-8.3c5.5-1.8,12-0.3,16.2,3.7c-4-2.2-6.7-6.6-6.9-11.2c5.3,0,10.5,3.5,12.5,8.4c-2.8-3.3-4.2-7.8-3.8-12.1
		c0.1-0.7,0.2-1.4,0.7-1.9c0.9-0.9,2.4-0.5,3.5,0.1c4,2,7.1,5.6,8.9,9.6c1.8,4.1,2.5,8.6,2.4,13l78.1,37.5
		c0.7,0.4,19.8,9.4,39.7,6.2c20-3.1,23.8-10.9,59.9-5.5s63,25.5,104.1,26.9c41.1,1.3,66.8-8,66.8-8s4.3-11.8,18.6-11.8
		c5.2,0,28.7,6,28.7,6s26.9-0.9,39.3-0.2c12.4,0.7,26.9,7,31.5,8.8l-25.1,4.8c0,0,25.1-12.4,44.2-2.4s19.5,26.9,26,42.2
		s11.3,56.6,1.8,87.2c-9.5,30.6-13.5,63.9-13.3,85s14.9,32.6,18.4,40.4s-0.2,13.8-4,34c-3.8,20.2-1.6,71.7-3.6,83.9
		s-11.1,18.9-11.1,18.9l-7.8,18.6c0,0-2.7,2.2-11.8,1.8c-9.1-0.4-13.8-2.7-13.8-2.7c25.5-30.9,23.8-81.7,18-105.4
		c-5.8-23.8-12.4-48.2-55.7-99.9l29.1,38.8c-2.2,16-15.3,37.3-26.9,54.2s-20.2,45.9-28.4,57.9c-8.2,12-8.9,6.9-14.7,10.9
		c-5.8,4-12.7,16.9-12.7,16.9s-6.9,2.4-14.2,2c-8-0.5-10-1.8-10-1.8s20.2-23.5,36-54.4s23.1-57.3,23.1-57.3"/>
	<path class="st3" d="M82.5,59.6c-3.2,1.5-5.8,4-8.2,6.5c-2.5,2.7-5,5.8-5.3,9.4c-0.4,4.1,1.8,7.9,2.2,12c0.6,5.6-2.3,10.9-4.6,16.1
		c-2.3,5.2-4,11.3-1.4,16.3c1.5,2.8,4.1,4.7,7,6.1c6.5,3.1,14.2,3.4,21.2,1.6c7-1.8,13.4-5.4,19.2-9.8c2.9-2.2,5.7-4.5,7.7-7.5
		c2-3,3.3-6.6,2.9-10.2c-0.6-5.1-4.3-9.2-7.1-13.5c-3.1-4.6-5.2-9.9-6.3-15.4c-0.4-2.1-0.7-4.2-1.5-6.1
		C105,56.7,89.5,56.4,82.5,59.6z"/>
	<path class="st4" d="M548.1,341.7c0,0-2.7,7.3-5.5,14c-2.9,6.7-8.4,10.4-8.4,10.4s10,14.9,5.1,18.6c-4.9,3.8-11.8-14.9-11.8-14.9
		l-9.5,2.7c0,0,4.2,23.1-1.1,23.3c-5.3,0.2-8-22.6-8-22.6s-6.7,0.2-10.9-0.2c-4.2-0.4-10.2-2.4-10.2-2.4s-9.8,25.1-14.4,23.1
		c-4.7-2,7.3-26.2,7.3-26.2l-8.9-5.3c0,0-16.4,20-19.8,17.1s16.2-23.5,16.6-24.2c0.4-0.7-4.7-4.9-6.4-15.1s-2-16.9-3.1-23.1l2.1-2.7
		l22.6-5.7l18.7-2.3l16.8-1.2c0,0,2.7,3.8,5.1,6.2C536.3,323.7,548.1,341.7,548.1,341.7z"/>
	<path class="st3" d="M215.1,291.6c-3.1,4.6-4,10.6-2.5,16c1.4,4.8,4.6,9,5.3,14c0.7,4.7-0.9,10,2,13.8c2.8,3.6,8.2,3.7,12.5,2.2
		c10.7-3.6,17.9-14.9,17.9-26.2c0-7.6-3-14.9-7.7-20.7c-4.9-6.1-10-9.3-17.8-6.5C220.9,285.5,217.4,288.2,215.1,291.6z"/>
	<path class="st3" d="M186.9,175.4c-6.7,7.7-11.4,17.4-12,27.6c-0.2,3.7,0.1,7.6,2,10.9c3.6,6.2,11.5,8,18.5,9.7
		c5.9,1.4,11.9,3.1,17.2,6.2c7.3,4.3,13,11,20.5,15c6.4,3.5,14.3,4.8,21.2,2.5c6.9-2.4,12.6-8.8,12.9-16.1c0.1-2.6-0.4-5.2-1-7.7
		c-1.1-5-2.5-10-3-15.1c-0.5-5.2,0-10.5-1-15.6c-1.8-9.5-8.4-17.4-15-24.5c-6.3-6.8-14.5-14-24.3-14.4c-8-0.3-17.5,6.4-23.8,10.7
		C194.7,167.7,190.5,171.3,186.9,175.4z"/>
	<path class="st3" d="M146.4,76.1c4.5,5.5,5.6,12.9,6.8,19.8c1.2,7,2.9,14.4,8.1,19.2l17.6,8.5c7.2,3.4,15.9,0.8,22.8-3.2
		c4.4-2.5,8.4-5.7,11.5-9.7c3-4,5-9,4.8-14l0.4-3.6c0,0-13.5,0.8-14.3,0.8S191,91,190.3,91c-0.8,0-24.9-9.9-26-10.4
		c-1-0.5-17-7.6-17-7.6L146.4,76.1"/>
	<path class="st3" d="M490.3,102.1c5.8,8.5,11.6,17,15.1,26.6c3.5,9.6,4.6,20.5,0.7,30c-4.9,12.2-17,20-29.1,25
		c-12.1,5-25.2,8.2-36.4,15c-16.6,10.1-27.9,27.5-44.4,37.7c-16.8,10.4-38.6,12.2-57,4.8c-18.3-7.4-32.8-23.8-37.8-42.9
		c-2.3-8.7-2.7-17.8-4.7-26.6c-2.1-8.8-6.2-17.6-13.8-22.4c-6.8-4.2-16.3-5.4-19.9-12.5c-2-3.9-1.5-8.6-0.2-12.7
		c5.3-15.6,22.1-23.7,37.6-29.4l4.3-0.4l28.3,10.7c0,0,33.3,8.3,34.3,8.6c1,0.3,27.3,1.6,37.4,0.5c10.1-1,26.2-3.1,27-3.4
		s16.5-4.3,16.5-4.3s-1.2-7.9,12.9-9.7c14-1.8,21.3,0.8,21.3,0.8L490.3,102.1z"/>
	<path class="st3" d="M546.4,146c-5.8,4.3-8.7,11.5-11.6,18.1c-4.6,10.3-10.6,20.5-19.9,26.9c-4.4,3-9.5,5.1-13.5,8.6
		c-6.4,5.5-9.4,14.1-10.3,22.5c-0.8,6.8-0.2,14.1,4.1,19.4c4.1,5,10.8,7.1,17.2,8.1c6.4,1,13.1,1.2,19.1,3.5
		c7.3,2.8,13.3,8.6,20.7,11.2c11.1,4,24.1,0.2,33-7.7c8.8-7.9,14-19.2,16.6-30.8c2.6-11.2,3-22.9,0.9-34.1c-1-5.4-2.6-10.8-5.8-15.2
		c-2.7-3.7-6.4-6.5-9-10.2c-2.6-3.6-4-7.9-5.7-12.1c-1.7-4.1-3.7-8.3-7.1-11.1c-4-3.3-9-3.5-13.8-2.2
		C556.1,142.2,550.8,142.7,546.4,146z"/>
	<path class="st1" d="M24.6,182.5c0,0,1,5.7,7.4,9.2c6.4,3.5,20.8,0.4,35.8-14.2c13.2-12.8,7-33.3-4-42.6c-11-9.3-36.3-4.7-38-4.3
		L14,136.8c0,0-9.9,2.3-11.8,10.6c-1.9,8.3,2.9,16.5,2.9,16.5l6.9,9c0,0-4.2,11.6-1.6,12.6C13.1,186.5,24.6,182.5,24.6,182.5z"/>
	<path class="st5" d="M105.5,38.3c0.6-4.9-0.7-9.8-2.2-14.5c-0.9-2.7-1.8-5.4-1.8-8.3c-0.1-6.5,5-12.7,11.4-13.9
		c-2.8,3.5-3.9,8.2-3.4,12.6s2.3,8.7,4.9,12.4c2.6,3.9,6.1,7.5,6.9,12.1c0.7,4-0.7,8.1-2.7,11.6c-1.6,3-4,6-7.3,6.4
		c-1.7,0.2-3.3-0.3-4.9-1c-2.5-1.1-8.8-4.2-6.8-7.6c0.9-1.5,3-2.6,4-4.3C104.6,42.2,105.2,40.3,105.5,38.3z"/>
	<path class="st2" d="M110.9,65.3c2.5-10.1,10.5-18.7,20.3-21.9c5.6-1.8,11.6-2,17.5-1.6c5.5,0.4,11.7,1.2,16-2.2
		c-3,2.5-4.9,6-6.5,9.5c-3.8,8-6.9,16.2-11,24c-2.4,4.5-5.2,8.9-9.4,11.7c-2.8,1.9-6.1,2.9-9.3,3.9c-1.1,0.4-2.9,0.4-3-0.8"/>
	<path class="st1" d="M146.6,68.5c3.8-8,5.5-16.7,9.3-23.3c-16.3,1-31.8,8.9-39.7,23.2c0,0,1.3,17.5,10.7,16.6
		C136.2,84,146.6,68.5,146.6,68.5z"/>
	<path class="st6" d="M136.3,207.8l10.1,7c0,0,7.8,0,23.3-56.2S181,84.7,181,84.7l0.2,1.3L167,79.8c0,0,3.6-0.7,2.9,12.2
		c-0.7,12.9-8.9,60.4-18,83c-9.1,22.6-12.2,34-15.8,32.9"/>
	<path class="st7" d="M138.4,225.6c0.2,0.7,8.2,11.8,7.1,26.9c-1.1,15.1-2.7,21.3-2.7,21.3s-4.2,5.5-20,2.2s-15.5-10.9-15.5-10.9
		s1.8-8.4,6-19.8s19.3-21.1,19.3-21.1s1.1,0.7,2.9,1.1S138.4,225.6,138.4,225.6z"/>
	<path class="st2" d="M603.2,132.4c5.5,6.9,28.2,23.3,26.6,67.5s-2.4,59.7,6,82.6c0,0,6-0.2,26.4,17.8s3.3,45.3,10,59.7
		c0,0-5.8-7.3-18.2-13.1c-12.4-5.8-17.8-8-22.2-27.1c-4.4-19.1-2.9-36-2.9-36s-6.7-16.6-6-40.6c0.7-24-3.1-57.5-5.8-63.7"/>
	<path class="st8" d="M74.1,96.6c-0.7,0.8,0.9-8.3,8-13.7c7.1-5.4,11.4-4.3,12-4.2c0.5,0.2,9.4,4,9.4,4s1.2,11.6-9.7,14.9
		C82.8,100.9,75.5,95,74.1,96.6z"/>
	<path class="st9" d="M465.9,473.1c-0.5,0.2-14.9,21.3-14.9,21.3s6.9,1.9,13.5,1.5c6.6-0.3,10.7-1.8,10.7-1.8s9.4-14.5,8.7-14.2
		c-0.7,0.3-10-2.6-10.6-2.8C472.8,477.1,465.9,473.1,465.9,473.1z"/>
	<path class="st9" d="M577.3,501c0.5,0,11.1,2.6,11.1,2.6l9.9,1.7l-7.1,17.1c0,0-13,0.9-13.9,0.9s-10.8-2.5-10.8-2.5l7.2-11.4
		L577.3,501z"/>
	<path class="st9" d="M252.2,478.1c0.9,0,10,2.4,10,2.4l9,1.2l-6.1,14.7c0,0-10-1-10.9-0.8c-0.9,0.2-8-5.2-8-5.2L252.2,478.1z"/>
	<path class="st9" d="M173.9,505.5l-9.3,14.7c0,0,4.5,4,9.8,5.4c5.4,1.4,10.6,0.6,10.6,0.6l7.4-14.1c0,0-4,0.5-10.2-1.7
		S173.9,505.5,173.9,505.5z"/>
	<path class="st5" d="M64.9,48.2c-1-4-5-6.4-8.8-8c-3.8-1.6-7.9-3.1-10.3-6.4c-2.5-3.5-2.4-8.2-2.3-12.6c-1.6,5-3.2,10.2-3.2,15.5
		s1.8,10.8,5.9,14.2c2.2,1.7,4.8,2.7,7.2,4.1s4.4,3.4,5.7,5.8c0,0.1,0.3,1.2,0.3,1.2l3.2-2.7c0,0,2.1-4.1,1.6-4.1
		c-0.4,0-3.1-0.3-2.9-1.6s2.3-3.6,2.3-3.6L64.9,48.2z"/>
	<path class="st2" d="M14.9,66.2c5.5,1.8,11.2-1.4,15.8-0.4c4.7,1,10.3,6.1,10.3,6.1l7.5-2.6c0,0-0.1-5.5-7.5-7.7
		c-7.4-2.2-16.2,1.4-16.5,1.8C24.2,63.9,14.9,66.2,14.9,66.2z"/>
</g>
<g id="Слой_19">
	<g>
		<path class="st10" d="M42.6,88.2c0.2,2.3,0.5,4.7,0.7,7c0.2,2.3,0.2,4.7,0.1,7.1c-0.2,4.7-1,9.5-2.8,13.9c-1,2.2-2.2,4.3-3.7,6.2
			c-0.8,0.9-1.6,1.8-2.5,2.6c-0.5,0.4-0.9,0.8-1.4,1.2l-1.4,1.1c-3.8,2.8-7.9,5.3-12.1,7.5l-6.2,3.2c-2,1.1-4.1,2.2-5.8,3.6
			c-1.7,1.3-3,3-3.8,5c-0.7,1.9-1,4.1-0.7,6.3c0.3,2.2,0.8,4.3,1.7,6.4c0.9,2.1,1.9,4,3.3,5.8c1.4,1.8,2.9,3.5,4.5,5.5
			c0.4,0.6,0.8,1,1.1,2c0.1,0.5,0.3,1.3-0.2,2.1l-0.2,0.3l-0.2,0.3c-0.4,0.9-0.8,2-1.1,3.1c-0.3,1.1-0.6,2.1-0.7,3.2
			c-0.1,0.5-0.1,1-0.1,1.5c0,0.4,0.1,0.8,0.2,1c0.1,0.1,0,0.1,0.3,0.1c0.4,0,0.9,0,1.5-0.1c1-0.1,2.2-0.4,3.3-0.7
			c2.2-0.6,4.4-1.3,6.7-2c1.1-0.3,2.3-0.7,3.5-0.9c0.6-0.1,1.3-0.2,2-0.2c0.1,0,0.5,0,0.7,0.1c0.2,0,0.4,0.1,0.6,0.2
			c0.4,0.1,0.7,0.3,1,0.4c1.1,0.6,2.1,1.2,3.1,1.7c1,0.5,2,0.9,3,1.2c2.1,0.6,4.3,0.6,6.4,0.3c4.3-0.7,8.5-2.8,12.3-5.3
			c3.8-2.5,7.4-5.5,10.8-8.7c3.4-3.2,6.4-6.7,8.8-10.6c2.4-3.9,4-8.4,3.8-13c0-1.2-0.1-2.3-0.3-3.4c-0.1-0.6-0.2-1.1-0.3-1.8
			c0-0.3-0.1-0.6,0.1-1c0-0.1,0.2-0.2,0.2-0.3l0.2-0.1c0.2-0.1,0.3-0.1,0.5-0.1c1.3,0,2.3,0.6,3.4,1.2c1,0.6,2,1.2,3,1.9
			c-1-0.6-2-1.2-3.1-1.7c-1-0.5-2.2-1-3.3-0.9c-0.1,0-0.3,0-0.4,0.1L79,140c0,0,0,0,0,0.1c-0.1,0.1,0,0.5,0,0.7
			c0.1,0.6,0.2,1.1,0.4,1.7c0.2,1.2,0.4,2.3,0.5,3.5c0.4,4.8-1.1,9.6-3.3,13.8c-2.3,4.2-5.4,7.9-8.7,11.3c-3.4,3.4-6.9,6.5-10.9,9.2
			c-3.9,2.7-8.3,5.1-13.2,6c-2.5,0.4-5.1,0.4-7.5-0.2c-1.2-0.3-2.4-0.8-3.5-1.3c-1.1-0.5-2.2-1.2-3.1-1.6c-0.5-0.2-0.9-0.4-1-0.3
			c-0.4,0-1,0.1-1.5,0.2c-1.1,0.2-2.2,0.5-3.3,0.9c-2.2,0.7-4.5,1.4-6.8,2c-1.2,0.3-2.3,0.6-3.6,0.8c-0.6,0.1-1.3,0.2-2,0.1
			c-0.4,0-1-0.1-1.4-0.4c-0.5-0.3-0.9-0.7-1.2-1.1c-0.5-0.9-0.6-1.7-0.7-2.4c0-0.7,0-1.4,0.1-2c0.2-1.3,0.4-2.5,0.8-3.7
			c0.4-1.2,0.8-2.3,1.3-3.5l0.2-0.5l0.2-0.3l0.1-0.2l0-0.1l0,0c-0.2,0.3-0.1,0.4-0.1,0.4c0-0.2-0.3-0.7-0.6-1.1
			c-1.3-1.7-3-3.5-4.4-5.5c-0.7-1-1.4-2-2-3.1c-0.6-1.1-1.1-2.2-1.6-3.3c-0.9-2.3-1.6-4.7-1.9-7.2c-0.3-2.5,0-5.1,1-7.6
			c1-2.4,2.7-4.5,4.7-6c2-1.5,4.1-2.7,6.2-3.7l6.3-3.1c4.2-2.1,8.2-4.4,12-7c2-1.3,3.7-2.7,5.2-4.4c1.5-1.7,2.7-3.6,3.7-5.7
			c2-4.1,3-8.7,3.4-13.4C43,97.6,42.7,92.9,42.6,88.2z"/>
	</g>
	<g>
		<path class="st10" d="M29.9,163.8c0.8-2.6,2-4.9,3.6-7.1c1.6-2.2,3.5-4.2,6.2-5.6c1.4-0.6,3-0.9,4.6-0.7l0.6,0.1
			c0.2,0.1,0.4,0.2,0.6,0.2c0.2,0.1,0.4,0.2,0.6,0.3l0.5,0.4c0.4,0.2,0.6,0.6,0.9,0.9c0.2,0.4,0.4,0.7,0.6,1.1
			c0.6,1.5,0.5,3.1,0,4.5c-0.5,1.3-1.4,2.6-2.6,3.1c0.8-1,1.2-2.2,1.2-3.4c0.1-1.2-0.2-2.3-0.7-3.2c-0.5-0.8-1.2-1.2-2.2-1.3
			c-0.1,0-0.2,0-0.3,0l-0.4,0c-0.3,0-0.5,0-0.7,0.1c-0.2,0.1-0.5,0.1-0.7,0.2l-0.7,0.3c-2,1-3.9,2.6-5.7,4.4
			C33.5,160,31.8,161.9,29.9,163.8z"/>
	</g>
	<g>
		<path class="st10" d="M5.6,147.5c1.7,1,3.5,1.8,5.4,2.4c1.8,0.6,3.7,0.9,5.6,1c1.9,0,3.6-0.2,5.5-0.8c1.8-0.5,3.6-1.2,5.3-2
			c3.5-1.6,6.9-3.5,10.6-5.2c0.9-0.4,1.9-0.8,2.9-1.1c1-0.3,2.1-0.5,3.1-0.6c1-0.1,2.1-0.1,3.1,0c1,0.1,2.1,0.3,2.9,1
			c-0.9-0.4-1.9-0.3-2.9-0.2c-1,0.1-1.9,0.3-2.8,0.6c-0.9,0.3-1.8,0.6-2.6,1c-0.8,0.4-1.7,0.9-2.5,1.4c-3.4,2-6.7,4.2-10.5,5.8
			c-1.9,0.8-3.8,1.5-5.9,2c-2,0.5-4.3,0.7-6.4,0.3c-2.1-0.3-4.1-1-5.9-2C8.6,150.2,6.9,149,5.6,147.5z"/>
	</g>
	<g>
		<path class="st10" d="M25.9,130.5c5.7-1.4,11.5-2.1,17.4-2.2c5.9,0,11.9,0.5,17.5,3.1c1.4,0.7,2.7,1.5,3.9,2.5l1.7,1.5
			c0.6,0.5,1,1.1,1.6,1.7c2,2.3,3.7,4.8,5.1,7.5c1.4,2.7,2.4,5.6,3,8.6c0.4,1.5,0.5,3,0.6,4.5c0,1.5,0.1,3.1-0.1,4.6
			c-0.1,1.5-0.5,3-0.8,4.5c-0.2,0.7-0.5,1.5-0.8,2.2c-0.1,0.4-0.3,0.7-0.4,1.1l-0.5,1c-1.3,2.8-3.3,5.2-5.5,7.4
			c-4.3,4-9.1,7.7-14.3,10.5c-2.6,1.4-5.4,2.6-8.3,3.4c-2.9,0.8-5.9,1.3-8.9,1.1c-1.5-0.1-3-0.4-4.4-1.1c-1.4-0.6-2.6-1.5-3.7-2.6
			c-2.2-2-3.8-4.7-4.4-7.6c0.8,2.8,2.7,5.2,4.9,6.9c1.1,0.9,2.3,1.7,3.6,2.1c1.3,0.5,2.7,0.7,4.1,0.7c2.8,0,5.6-0.6,8.3-1.5
			c2.7-0.9,5.3-2.1,7.7-3.6c4.9-2.9,9.4-6.5,13.5-10.5c1.9-2,3.7-4.1,4.8-6.6l0.5-0.9c0.1-0.3,0.2-0.6,0.3-1
			c0.2-0.6,0.5-1.3,0.7-1.9c0.3-1.3,0.6-2.7,0.7-4.1c0.2-1.4,0.1-2.7,0.1-4.1c-0.2-1.4-0.2-2.8-0.6-4.1c-0.2-0.7-0.2-1.4-0.5-2
			l-0.6-2c-0.2-0.7-0.5-1.3-0.8-2l-0.4-1l-0.5-0.9c-1.2-2.6-2.7-4.9-4.5-7c-0.5-0.5-0.9-1.1-1.4-1.6l-1.5-1.5
			c-1-0.9-2.1-1.7-3.4-2.3c-2.4-1.3-5.2-2.1-8-2.7c-2.8-0.6-5.7-0.9-8.5-1C37.6,129.5,31.7,129.8,25.9,130.5z"/>
	</g>
	<g>
		<path class="st10" d="M69.6,176.4c2.2-1,4.5-1.7,6.8-2.2c2.3-0.6,4.7-1,7.1-1.4c4.7-0.8,9.5-1.3,14.3-1.8c2.4-0.2,4.8-0.5,7.1-0.7
			c2.4-0.2,4.6-0.5,6.9-1c4.6-0.9,9-2.4,13.2-4.4c4.1-2,8-4.7,10.8-8.2c1.4-1.7,2.5-3.7,3.1-5.8c0.3-1,0.5-2.1,0.6-3.2
			c0-0.6,0.1-1.1,0.1-1.7l0-1.7c-0.2-4.7-1-9.3-2.2-13.9c-1.2-4.6-2.8-9.1-4.9-13.4c2.6,4,4.7,8.4,6.3,13c1.6,4.6,2.7,9.3,3.1,14.2
			l0.1,1.8c0,0.6,0,1.3,0,1.9c-0.1,1.3-0.2,2.6-0.6,3.8c-0.6,2.5-1.9,4.8-3.4,6.8c-1.5,2-3.4,3.7-5.4,5.3c-2,1.5-4.1,2.8-6.3,3.9
			c-4.4,2.1-9.1,3.6-14,4.5c-2.4,0.4-4.9,0.7-7.3,0.8l-7.1,0.4c-4.8,0.3-9.5,0.5-14.3,0.9c-2.4,0.2-4.7,0.4-7.1,0.7
			C74.2,175.3,71.8,175.6,69.6,176.4z"/>
	</g>
	<g>
		<path class="st10" d="M42.6,100.1c-1.7-1.9-3.3-3.9-4.7-6c-1.4-2.2-2.5-4.6-3.1-7.2c-0.6-2.6-0.6-5.4,0.1-8.1
			c0.8-2.7,2.6-5.2,4.8-6.8c2.2-1.6,4.7-2.6,7-3.7c2.3-0.9,4.5-2,6.7-3.2c2.1-1.2,4.2-2.5,6.3-4c1-0.7,2-1.5,2.9-2.3
			c0.9-0.9,1.6-1.9,1.8-3.1c0.1,1.3-0.4,2.6-1.2,3.7c-0.7,1.1-1.7,2-2.6,2.9c-1.8,1.8-3.8,3.4-6,4.9c-2.1,1.5-4.4,2.7-6.7,3.8
			c-2.3,1.1-4.5,2.1-6.3,3.5c-1.9,1.3-3.2,3.1-3.9,5.2c-0.7,2.1-0.8,4.5-0.5,6.8C37.7,91.2,40.2,95.6,42.6,100.1z"/>
	</g>
	<g>
		<path class="st10" d="M98.9,49.4c-0.2-3.8-0.8-7.6-2.2-11c-1.4-3.4-3.6-6.5-6.4-8.7c-0.7-0.6-1.5-1-2.2-1.5
			c-0.8-0.4-1.6-0.8-2.2-0.9c-0.3,0-0.6,0-0.7,0.1c-0.1,0.1-0.2,0.2-0.3,0.4c-0.2,0.5-0.2,1.6-0.2,2.4c0.1,3.5,1.4,7,3.7,9.6
			l-2.3,1.4c-0.9-2.2-2.5-4.1-4.5-5.4c-2-1.3-4.3-2.1-6.7-2.1l1.5-1.5c0.1,2,0.7,4,1.7,5.8c1.1,1.8,2.6,3.2,4.3,4.2l-1.7,2.3
			c-1.9-1.8-4.3-3.2-6.9-3.8c-2.6-0.6-5.4-0.6-7.9,0.2l0.8-1.5c0.9,3.4,3.6,6.4,7,7.7l6.6,2.5l-7-0.7c-2.4-0.3-4.9-0.3-7.1,0.4
			c-1.1,0.4-2.1,1-2.9,1.9c-0.8,0.8-1.4,1.9-1.5,3.1l-0.1-0.3c1.4,1.2,3.7,1.2,5.3,0c-1.4,1.4-3.9,1.8-5.7,0.5l-0.1-0.1l0-0.2
			c0-1.3,0.6-2.7,1.4-3.7c0.8-1,2-1.9,3.2-2.4c1.2-0.5,2.6-0.8,3.9-1c1.3-0.1,2.6-0.1,3.9-0.1l-0.4,1.8c-4.1-1.2-7.4-4.6-8.7-8.8
			l-0.3-1.1l1.1-0.4c3-1.1,6.2-1.2,9.3-0.5c3.1,0.7,6,2.1,8.3,4.4l7.5,7.3l-9.2-5c-2.3-1.2-4.1-3.1-5.5-5.2
			c-1.3-2.2-2.2-4.7-2.2-7.2l0-1.5l1.5,0c3,0,5.9,1,8.3,2.6c2.4,1.6,4.4,4,5.5,6.7l3.1,8l-5.5-6.5c-2.7-3.2-4.1-7.3-4-11.4
			c0-0.5,0-1,0.1-1.5c0.1-0.5,0.1-1.1,0.4-1.7c0.2-0.6,0.8-1.3,1.5-1.6c0.7-0.3,1.4-0.3,2-0.3c1.2,0.2,2.2,0.8,3,1.3
			c0.9,0.5,1.7,1.1,2.4,1.8c3,2.6,5.1,6.1,6.3,9.8C99,41.7,99.2,45.6,98.9,49.4z"/>
	</g>
	<g>
		<path class="st11" d="M64.9,48.2c-0.5-1.5-1.5-2.7-2.7-3.7c-1.2-1-2.5-1.8-3.8-2.4c-2.7-1.3-5.8-2.1-8.7-3.6
			c-1.5-0.8-2.9-1.7-4.1-3c-1.2-1.3-2.1-2.9-2.6-4.5c-1.1-3.3-1-6.7-0.9-9.8l2.9,0.5c-1.2,3.8-2.4,7.6-2.9,11.4
			c-0.3,1.9-0.4,3.8-0.2,5.7c0.1,1.9,0.5,3.8,1.2,5.5c0.6,1.8,1.6,3.4,2.9,4.8c1.2,1.4,2.8,2.4,4.6,3.4c1.7,1,3.6,1.9,5.2,3.3
			c1.6,1.3,3,3,3.5,5c-0.8-1.9-2.4-3.2-4-4.2c-1.7-1.1-3.5-1.7-5.4-2.6c-1.8-0.8-3.8-1.8-5.4-3.3c-1.6-1.5-2.8-3.3-3.7-5.3
			c-1.7-4-2.1-8.4-1.5-12.5c0.5-4.2,1.8-8.1,3-11.9l3.4-10.4L45,21.3c-0.1,1.6-0.1,3.1-0.1,4.6c0,1.5,0.2,2.9,0.6,4.3
			c0.4,1.4,1,2.6,1.9,3.7c0.9,1.1,2,2,3.3,2.7c1.3,0.8,2.7,1.5,4.1,2.1c1.4,0.7,2.9,1.3,4.2,2.2c1.4,0.9,2.7,1.8,3.7,3.1
			C63.8,45.2,64.6,46.7,64.9,48.2z"/>
	</g>
	<g>
		<path class="st11" d="M105.5,38.3c0.4-3.5-0.2-7.1-1.1-10.5c-0.9-3.4-2.4-6.7-3-10.3c-0.7-3.6,0.2-7.5,2.3-10.5
			c2.1-3.1,5.3-5.5,9.1-6.4l2.7-0.6l-1.7,2.3c-2.1,2.8-3,6.4-3,10c0.1,3.5,1.2,7,2.9,10.2c0.9,1.6,1.8,3.1,2.9,4.6
			c1.1,1.5,2.3,3,3.3,4.7c1.1,1.7,2,3.5,2.5,5.6c0.5,2.1,0.4,4.2,0,6.2c-0.4,2-1.2,3.9-2.1,5.6c-0.9,1.7-1.9,3.4-3.3,4.9
			c-1.3,1.5-3.1,2.8-5.2,3.1c-2.1,0.3-4.1-0.5-5.8-1.3c-1.7-0.9-3.4-1.8-4.9-3.1c-0.7-0.6-1.4-1.4-1.8-2.3c-0.2-0.5-0.3-1-0.2-1.5
			c0-0.1,0-0.2,0.1-0.4l0.2-0.3c0.1-0.2,0.2-0.4,0.4-0.6c1.2-1.5,3-2.4,3.9-4.1C104.6,42,105.2,40.2,105.5,38.3z M105.5,38.3
			c-0.2,1.9-0.8,3.7-1.7,5.4c-0.9,1.7-2.7,2.7-3.8,4.2c-0.1,0.2-0.3,0.4-0.3,0.6l-0.1,0.3c0,0.1,0,0.2-0.1,0.3
			c-0.1,0.4,0,0.9,0.2,1.3c0.4,0.8,1.1,1.5,1.8,2.1c1.5,1.2,3.2,2,4.9,2.7c1.7,0.7,3.6,1.3,5.2,0.9c1.7-0.4,3.1-1.5,4.2-2.9
			c1.1-1.4,1.9-3.1,2.7-4.8c0.7-1.7,1.3-3.4,1.6-5.2c0.3-1.7,0.2-3.5-0.2-5.1c-0.5-1.6-1.3-3.2-2.3-4.7c-1-1.5-2.2-3-3.3-4.5
			c-1.2-1.6-2.3-3.2-3.2-5c-1.8-3.5-3-7.5-2.9-11.6c0-4.1,1.4-8.2,4-11.3l1,1.7c-3.2,0.5-6.3,2.4-8.3,5.1c-2.1,2.7-3.2,6.2-2.7,9.6
			c0.4,3.5,1.8,6.8,2.6,10.3C105.4,31.2,106,34.8,105.5,38.3z"/>
	</g>
	<g>
		<path class="st10" d="M48.5,68.5c-0.8-1.7-2-3.1-3.4-4.2c-1.4-1.1-3.1-1.8-4.8-2.3c-3.4-0.9-7.1-0.9-10.4,0
			c-3.3,1-6.4,2.9-10.1,4.2c-1.9,0.6-3.8,1-5.9,0.9c-2-0.1-4.3-0.7-6-2.2l-7.9-6.7l9.4,4.2c1.2,0.5,2.2,1.2,3.1,2.1
			c0.9,0.8,1.6,1.8,2.2,2.8c1.2,2,2,4,2.8,6c1.6,4,2.8,8.1,4.2,12.2c1.2,3.9,3.2,7.7,6.7,9.7c1.7,1,3.7,1.6,5.8,1.9
			c2.1,0.3,4.2,0.2,6.4,0.1c-2.1,0.5-4.2,0.8-6.4,0.8c-2.2,0-4.4-0.4-6.5-1.4c-2.1-1-3.8-2.5-5.2-4.3c-1.4-1.8-2.3-3.9-3.1-5.9
			c-1.5-4-2.9-8-4.5-11.9c-0.8-2-1.6-3.9-2.7-5.5c-1.1-1.6-2.4-3-4-3.8l1.6-2.5c1.1,1,2.6,1.4,4.2,1.5c1.6,0.1,3.3-0.2,4.9-0.7
			c3.3-1,6.6-2.9,10.4-3.8c1.9-0.4,3.9-0.5,5.8-0.4c1.9,0.2,3.8,0.5,5.6,1.2c1.8,0.7,3.5,1.6,4.8,3C47,65,48,66.7,48.5,68.5z"/>
	</g>
	<g>
		<path class="st10" d="M110.9,65.3c1-5.4,3.7-10.5,7.4-14.6c3.8-4.1,8.7-7.3,14.1-8.9c5.4-1.6,11.1-1.8,16.7-1.4
			c2.7,0.2,5.4,0.4,8,0.2c2.6-0.2,5-0.8,6.8-2.3l1.9,2.3c-3.9,3.3-5.9,8.6-8.3,13.6c-2.3,5-4.5,10.2-7.1,15.2
			c-1.3,2.5-2.6,5-4.1,7.4c-1.5,2.4-3.3,4.7-5.5,6.6c-2.2,1.9-4.8,3.2-7.5,4.1c-1.3,0.4-2.7,0.8-4,1.2c-0.7,0.2-1.4,0.4-2.1,0.3
			c-0.4,0-0.7-0.1-1-0.3c-0.3-0.2-0.5-0.5-0.6-0.9c0.1,0.3,0.3,0.6,0.6,0.8c0.3,0.1,0.7,0.2,1,0.2c0.7,0,1.3-0.3,2-0.5
			c1.3-0.5,2.6-1,3.9-1.5c2.5-1.1,4.9-2.5,6.8-4.4c1.9-1.9,3.5-4.1,4.8-6.5c1.3-2.4,2.5-4.9,3.7-7.4c2.3-5,4.4-10.2,6.6-15.3
			c1.1-2.6,2.3-5.1,3.6-7.7c1.4-2.5,3-5.1,5.4-7l1.9,2.3c-2.5,2-5.6,2.7-8.5,2.8c-2.9,0.2-5.7-0.1-8.4-0.4
			c-5.3-0.5-10.7-0.4-15.8,0.9c-5.1,1.3-9.8,4-13.7,7.7C115.5,55.4,112.6,60,110.9,65.3z"/>
	</g>
	<g>
		<g>
			<path class="st10" d="M82.5,59.6c-2,0.9-3.7,2.2-5.4,3.7c-1.6,1.5-3.1,3.1-4.5,4.7c-1.4,1.7-2.6,3.5-3.2,5.6
				c-0.6,2.1-0.4,4.3,0.1,6.4c0.5,2.1,1.3,4.1,1.8,6.3c0.2,1.1,0.3,2.2,0.3,3.3c0,1.1-0.2,2.2-0.4,3.3c-0.9,4.4-3,8.3-4.6,12.3
				c-0.8,2-1.4,4.1-1.7,6.1c-0.3,2.1-0.2,4.2,0.4,6.1c0.6,1.9,1.8,3.5,3.3,4.8c1.5,1.3,3.4,2.2,5.3,3c3.9,1.5,8.1,2.1,12.3,1.8
				c4.2-0.2,8.3-1.2,12.2-2.8c3.9-1.6,7.6-3.7,11.2-6.1c3.5-2.5,7-5,9.4-8.3c2.4-3.2,3.9-7.4,2.9-11.3c-1-4-3.8-7.4-6.1-11.1
				c-2.4-3.7-4.2-7.8-5.4-12.1c-0.6-2.1-1-4.3-1.3-6.5c-0.4-2.1-0.8-4.3-2.2-5.9c-1.3-1.7-3.2-2.9-5.2-3.6c-2-0.8-4.2-1.3-6.3-1.5
				c-2.2-0.2-4.4-0.2-6.5,0.1C86.7,58.3,84.5,58.7,82.5,59.6z M82.5,59.6c2-0.9,4.1-1.4,6.3-1.7c2.2-0.3,4.4-0.3,6.5-0.1
				c2.2,0.2,4.3,0.6,6.4,1.3c2.1,0.7,4,1.9,5.5,3.6c1.5,1.7,2.1,4,2.5,6.1c0.4,2.2,0.9,4.3,1.6,6.3c1.3,4.1,3.3,8,5.7,11.5
				c1.2,1.8,2.6,3.5,3.8,5.3c1.2,1.8,2.4,3.9,3,6.1c0.7,2.3,0.7,4.7,0.1,7c-0.5,2.3-1.6,4.4-2.9,6.3c-1.3,1.9-2.9,3.6-4.6,5
				c-1.7,1.5-3.4,2.8-5.3,4.1c-3.6,2.6-7.5,4.8-11.7,6.5c-4.2,1.7-8.6,2.8-13.2,2.9c-4.5,0.2-9.2-0.5-13.4-2.3
				c-2.1-0.9-4.1-2.1-5.9-3.7c-0.9-0.8-1.7-1.7-2.3-2.7c-0.7-1-1.1-2.1-1.4-3.3c-0.6-2.3-0.6-4.7-0.1-6.9c0.4-2.2,1.2-4.4,2-6.4
				c1.8-4.1,4-7.8,5-12c0.3-1,0.4-2.1,0.5-3.2c0.1-1.1,0-2.1-0.2-3.2c-0.3-2.1-1-4.2-1.5-6.3c-0.5-2.1-0.6-4.4,0.1-6.5
				c0.7-2.1,2-3.9,3.4-5.6c1.4-1.7,2.9-3.2,4.5-4.7C78.7,61.8,80.5,60.5,82.5,59.6z"/>
		</g>
	</g>
	<g>
		<path class="st10" d="M116.2,68.4c1.6-3.7,3.9-7.1,6.6-10.1L125,56l2.3-2l2.5-1.8l2.6-1.6c3.5-2.1,7.4-3.7,11.3-4.8
			c4-1.1,8-1.8,12.1-1.9l2.6-0.1l-1.3,2.1c-1,1.7-1.9,3.6-2.8,5.4c-0.8,1.9-1.6,3.8-2.4,5.8c-1.6,3.9-3.2,7.8-5.4,11.4
			c1.4-4,2.5-8,3.6-12c0.6-2,1.2-4,1.9-6c0.7-2,1.6-4,2.6-5.9l1.3,2c-3.9,0.4-7.7,1-11.5,2.1c-3.8,1-7.4,2.5-10.8,4.3l-2.5,1.4
			l-2.5,1.6l-2.4,1.7l-2.3,1.9C121.1,62.1,118.5,65.1,116.2,68.4z"/>
	</g>
	<g>
		<path class="st12" d="M73.9,95.3c0.9-3.8,2.2-7.5,4.4-11c1.1-1.7,2.5-3.3,4.2-4.6c1.7-1.3,3.6-2.3,5.7-2.8
			c1.1-0.2,2.2-0.4,3.3-0.3c1.1,0,2.2,0.2,3.2,0.5c2,0.6,3.8,1.5,5.5,2.5c3.4,1.9,6.5,4.1,10.4,4.3c-1.9,0.6-4,0.4-5.9-0.1
			c-2-0.5-3.8-1.3-5.5-2.1c-1.8-0.7-3.5-1.5-5.2-1.9c-1.7-0.4-3.4-0.4-5,0c-3.3,0.8-6.3,3-8.7,5.8C77.9,88.6,76,92,73.9,95.3z"/>
	</g>
	<g>
		<path class="st12" d="M102.4,82.7c1,1.2,1.2,2.8,1.2,4.3c0,1.5-0.4,3.1-1,4.5c-0.6,1.4-1.5,2.8-2.6,3.9c-1.1,1.1-2.4,2.1-3.8,2.8
			c-0.4,0.2-0.7,0.4-1.1,0.5L94,99.1c-0.7,0.3-1.5,0.4-2.3,0.6c-1.5,0.3-3,0.4-4.5,0.4c-1.5,0-3.1-0.3-4.5-0.8
			c-1.4-0.5-2.7-1.3-3.9-2.2c1.5,0.3,2.8,0.6,4.2,0.7c1.4,0.1,2.7,0,4.1-0.1c1.3-0.2,2.7-0.4,4-0.8c0.6-0.2,1.3-0.3,1.9-0.6L94,96
			c0.3-0.1,0.6-0.3,0.9-0.4c1.2-0.5,2.2-1.3,3.2-2.1c1-0.9,1.8-1.9,2.5-3c0.7-1.1,1.3-2.3,1.6-3.6C102.5,85.5,102.8,84.1,102.4,82.7
			z"/>
	</g>
	<g>
		<path class="st13" d="M181.2,86c-2.4-0.9-4.8-1.9-7.2-2.8l-7.2-2.9l-2-0.8l2.2-0.2c0.8-0.1,1.2,0.3,1.6,0.6
			c0.4,0.4,0.6,0.7,0.8,1.2c0.4,0.8,0.7,1.7,0.9,2.5c0.4,1.7,0.5,3.4,0.6,5.1c0.1,3.4-0.2,6.7-0.5,10c-0.7,6.6-1.6,13.2-2.7,19.7
			c-1.1,6.5-2.3,13.1-3.7,19.6c-1.4,6.5-2.9,13-4.7,19.4c-1.8,6.4-3.7,12.8-6.3,19l-7.4,18.4c-1.3,3.1-2.5,6.1-4.1,9.2
			c-0.4,0.8-0.8,1.5-1.3,2.2c-0.5,0.7-1,1.5-1.8,2.1c-0.4,0.3-1,0.6-1.6,0.6c-0.3,0-0.6,0-0.9-0.2c-0.2-0.1-0.3-0.2-0.5-0.3
			c-0.1-0.1-0.2-0.2-0.3-0.4c-0.6-1-0.7-1.9-0.8-2.7c-0.2-3.5,0.4-6.7,0.9-10c0.6-3.3,1.3-6.5,2.1-9.7c-0.5,3.3-1,6.5-1.4,9.8
			c-0.3,3.3-0.7,6.6-0.3,9.8c0.1,0.8,0.3,1.6,0.6,2c0,0,0.1,0.1,0.1,0.1c0,0,0.1,0,0.1,0c0.1,0,0.2,0.1,0.3,0c0.2,0,0.4-0.1,0.7-0.3
			c0.5-0.4,0.9-1.1,1.3-1.7c0.4-0.7,0.8-1.4,1.1-2.1c1.3-3,2.5-6.1,3.6-9.1l3.4-9.3l3.5-9.3c2.4-6.1,4.3-12.4,6-18.7
			c3.4-12.7,6.2-25.6,8.6-38.6c1.2-6.5,2.4-13,3.3-19.5c0.4-3.3,0.9-6.5,0.9-9.8c0-1.6,0-3.2-0.3-4.8c-0.1-0.8-0.3-1.6-0.6-2.2
			c-0.1-0.3-0.3-0.6-0.5-0.9c-0.1-0.1-0.2-0.2-0.3-0.3c-0.1-0.1-0.3-0.1-0.3-0.1l0.1-1l7,3.3C176.6,83.7,178.9,84.9,181.2,86z"/>
	</g>
	<g>
		<path class="st13" d="M137.7,210.1c3,1.4,5.9,2.8,8.9,4.3l-0.2-0.1c0,0,0.1,0,0.1-0.1c0.1,0,0.1-0.1,0.2-0.1
			c0.1-0.1,0.3-0.1,0.4-0.3c0.2-0.2,0.5-0.4,0.7-0.7c0.5-0.5,0.9-1.1,1.3-1.6c0.4-0.6,0.8-1.2,1.1-1.8c0.4-0.6,0.7-1.2,1-1.8
			c0.7-1.2,1.3-2.5,1.9-3.8c0.6-1.3,1.1-2.6,1.7-3.9c2.2-5.2,4-10.6,5.8-16c3.5-10.8,6.6-21.7,9.5-32.7c2.9-11,5.6-22,7.7-33.2
			c0.3-1.4,0.5-2.8,0.8-4.2l0.7-4.2l0.6-4.2c0.2-1.4,0.3-2.8,0.5-4.2c0.6-5.6,1.2-11.3,0.6-17c0.6,2.8,0.8,5.7,0.9,8.5
			c0.1,2.9,0,5.7-0.2,8.6c-0.3,5.7-1,11.4-1.8,17.1c-1.7,11.3-4.2,22.5-7.1,33.5c-2.9,11.1-6.1,22-9.9,32.8c-2,5.4-4,10.7-6.4,15.9
			c-0.6,1.3-1.3,2.6-1.9,3.9c-0.7,1.3-1.4,2.5-2.1,3.8c-0.4,0.6-0.8,1.2-1.2,1.8c-0.4,0.6-0.8,1.2-1.3,1.8c-0.5,0.6-0.9,1.1-1.5,1.6
			c-0.3,0.3-0.6,0.5-0.9,0.7c-0.1,0.1-0.3,0.2-0.5,0.3c-0.1,0-0.2,0.1-0.3,0.1c-0.1,0-0.2,0.1-0.4,0.1l-0.1,0l-0.1-0.1
			C143.3,213.5,140.5,211.8,137.7,210.1z"/>
	</g>
	<g>
		<path class="st10" d="M149.2,213.6c1.9,5,3.6,10.1,5.3,15.2c1.6,5.1,3.2,10.2,4.6,15.4c2.8,10.4,5,20.8,8.1,31
			c1.4,5.2,3,10.1,5.1,15c2,4.9,4.4,9.6,6.9,14.3c5,9.4,10.7,18.4,16.8,27.2c-7-8.1-13.3-16.8-18.8-26.1c-0.7-1.1-1.4-2.3-2-3.5
			c-0.6-1.2-1.3-2.3-1.9-3.6l-1.8-3.6l-1.7-3.7c-2.2-4.9-3.9-10.2-5.4-15.3c-1.5-5.2-2.8-10.4-4-15.6l-3.4-15.7
			c-1.2-5.2-2.4-10.4-3.7-15.6C151.8,223.9,150.5,218.8,149.2,213.6z"/>
	</g>
	<g>
		<path class="st10" d="M122.6,168.4c2.7,1.5,5,3.5,7.1,5.6c2.1,2.2,4,4.5,5.7,7c1.7,2.5,3.1,5.1,4.4,7.8c1.2,2.7,2.3,5.5,3,8.5
			c-1.8-2.4-3.5-4.9-5.1-7.3l-4.9-7.3c-1.6-2.4-3.3-4.8-5-7.2C126.2,173.1,124.5,170.8,122.6,168.4z"/>
	</g>
	<g>
		<path class="st14" d="M138.4,225.6c2.3,3.4,4.3,7.1,5.7,11.1c1.4,3.9,2.2,8.1,2.4,12.4c0.1,1.1,0,2.1,0,3.2c0,1.1-0.1,2.1-0.2,3.1
			c-0.1,2.1-0.3,4.2-0.5,6.2c-0.4,4.2-0.8,8.3-1.7,12.5l-0.1,0.3l-0.2,0.2c-0.3,0.3-0.4,0.5-0.6,0.7c-0.2,0.2-0.4,0.3-0.6,0.5
			c-0.4,0.3-0.8,0.5-1.2,0.8c-0.9,0.4-1.7,0.8-2.6,1.1c-1.8,0.5-3.6,0.8-5.4,0.9c-3.6,0.2-7.1-0.2-10.5-0.9
			c-3.4-0.7-6.9-1.7-10.1-3.5c-1.6-0.9-3.1-2-4.4-3.4c-0.7-0.7-1.2-1.5-1.7-2.4l-0.3-0.7l-0.3-0.7c-0.1-0.3-0.1-0.5-0.2-0.8
			c0-0.3-0.1-0.5-0.1-0.9l0-0.1l0-0.1c1-4.1,2.2-8.1,3.5-12.1c0.7-2,1.4-3.9,2.1-5.9c0.7-1.9,1.6-4,2.7-5.8c1.1-1.8,2.4-3.5,3.8-5.1
			c1.4-1.6,2.9-3.1,4.4-4.5c3.1-2.8,6.5-5.3,10-7.5l0.2-0.1l0.1,0.1c0.8,0.5,1.7,0.9,2.7,1.2C136.4,225.5,137.4,225.7,138.4,225.6z
			 M138.4,225.6c-1,0.2-2,0.1-3-0.1c-1-0.2-2-0.5-2.9-1l0.3,0c-3.3,2.4-6.4,5.2-9.3,8.1c-2.8,2.9-5.5,6.1-7.4,9.6
			c-0.5,0.9-0.9,1.8-1.3,2.7c-0.4,0.9-0.7,1.9-1,2.9c-0.7,1.9-1.3,3.9-1.9,5.9c-1.2,3.9-2.3,7.9-3.1,11.9l0-0.3c0,0,0,0.2,0.1,0.3
			c0,0.1,0.1,0.3,0.1,0.5l0.2,0.5l0.2,0.5c0.3,0.6,0.7,1.2,1.3,1.8c1,1.1,2.3,2,3.7,2.8c2.8,1.5,6,2.4,9.2,3.1
			c3.3,0.7,6.6,1.1,9.8,1c1.6,0,3.2-0.3,4.7-0.7c0.8-0.2,1.5-0.5,2.1-0.8c0.3-0.2,0.6-0.4,0.9-0.6c0.1-0.1,0.3-0.2,0.4-0.3
			c0.1-0.1,0.3-0.2,0.3-0.2l-0.2,0.5c0.9-3.9,1.5-8,2-12.1c0.3-2,0.5-4.1,0.7-6.1l0.3-3.1c0-1,0.2-2,0.2-3c0-1,0-2-0.1-3l-0.1-1.5
			l-0.2-1.5c-0.2-2-0.7-4-1.2-6C142,233.1,140.3,229.3,138.4,225.6z"/>
	</g>
	<g>
		<path class="st10" d="M196.8,244.3c-0.4,2.9-1,5.8-1.4,8.7c-0.4,2.9-0.8,5.8-1.1,8.8c-0.5,5.9-0.7,11.8-0.7,17.6
			c0.2,11.8,1.1,23.5,2.6,35.2l4.7,35.1c0.4,2.9,0.7,5.9,1,8.9c0.1,1.5,0.2,3,0.1,4.6c-0.1,1.6-0.3,3.2-0.9,4.7l-0.8,2.1
			c-0.2,0.7-0.4,1.3-0.6,2c-0.4,1.4-0.6,2.8-0.9,4.2c-0.5,2.9-0.7,5.8-1,8.7c-0.4,5.8-0.5,11.7-0.6,17.6c-0.1,5.9-0.2,11.8-0.4,17.7
			c-0.5,11.8-1.3,23.7-3.8,35.4c-2.6,11.6-6.2,23-10.7,33.9c-2.3,5.5-4.7,10.9-7.8,16.1c-3,5.1-6.2,10.1-9.6,15l0-0.8
			c1.1,1.2,2.6,2.3,4.2,3.2c1.6,0.9,3.2,1.7,4.9,2.2c1.7,0.5,3.5,0.8,5.3,0.9c1.8,0.1,3.6,0.1,5.4-0.1l-0.2,0.2
			c2.5-4.5,5.1-8.9,7.6-13.4c-2.3,4.6-4.7,9.1-7,13.7l-0.1,0.1l-0.2,0c-1.9,0.3-3.7,0.4-5.6,0.3c-1.9-0.1-3.7-0.3-5.5-0.8
			c-1.8-0.5-3.5-1.2-5.2-2.1c-1.7-0.9-3.2-1.9-4.7-3.3l-0.3-0.4l0.3-0.5c3.2-4.9,6.3-10,9.1-15.1c2.9-5.1,5.2-10.5,7.3-16
			c2.1-5.5,4-11,5.7-16.7c1.7-5.6,3.2-11.3,4.4-17c1.1-5.7,1.8-11.5,2.4-17.4c0.5-5.8,0.9-11.7,1.1-17.6c0.5-11.7,0.1-23.6,1-35.4
			c0.2-3,0.5-5.9,1-8.9c0.3-1.5,0.5-3,0.9-4.5c0.2-0.7,0.4-1.5,0.7-2.2l0.8-2.1c0.4-1.3,0.7-2.6,0.8-3.9c0-1.4,0-2.8-0.1-4.3
			c-0.2-2.9-0.5-5.8-0.9-8.7l-2.1-17.6l-2-17.6c-1.3-11.8-2.1-23.6-1.8-35.4c0.1-5.9,0.5-11.8,1.3-17.7c0.4-2.9,0.8-5.9,1.4-8.8
			C195.5,250,196.2,247.2,196.8,244.3z"/>
	</g>
	<g>
		<path class="st10" d="M174.8,506.4c1.3,0.8,2.5,1.7,3.7,2.4c1.3,0.7,2.6,1.4,4,1.9c1.4,0.5,2.8,0.8,4.3,0.9
			c1.5,0.2,2.9,0.3,4.4,0.3c0.7,0,1.5,0,2.2-0.1c0.4,0,0.7-0.1,0.9-0.2c0.3-0.2,0.5-0.4,0.8-0.7c1.1-1,2-2.1,3-3.2
			c0.9-1.1,1.9-2.3,2.7-3.5c0.4-0.6,0.8-1.2,1.1-1.8c0.3-0.6,0.5-1.3,0.7-2c0.8-2.8,1.5-5.7,2.2-8.6c0.4-1.4,0.7-2.9,1.1-4.3
			c0.2-0.7,0.4-1.4,0.6-2.1c0.2-0.7,0.3-1.4,0.5-2.1c1.2-5.8,2.1-11.6,3-17.5c0.4-2.9,0.8-5.9,1.2-8.8c0.2-1.5,0.3-2.9,0.4-4.4
			c0.1-1.5,0.3-3,0.5-4.5c0.4-3,1-6,2.2-9c0.2-0.4,0.3-0.7,0.5-1.1l0.3-0.6l0.3-0.5c0.4-0.6,0.7-1.2,1.1-1.9
			c0.7-1.3,1.4-2.6,2.1-3.9c2.7-5.2,5.4-10.5,7.7-15.9c0.6-1.3,1.1-2.7,1.5-4l0.3-1l0.2-0.9c0.1-0.7,0.2-1.5,0.3-2.3
			c0.5-3,1.2-5.9,2-8.8c1.5-5.8,3.5-11.5,5.8-17c2.4-5.6,5.4-10.7,8.2-15.9c5.8-10.4,11.6-20.7,17.1-31.2
			c5.4-10.5,10.9-21.1,12.9-32.7c2.3-11.6,2.9-23.5,2.9-35.3c0.4,5.9,0.4,11.9,0.2,17.8c-0.2,5.9-0.7,11.9-1.6,17.8
			c-0.5,2.9-1.1,5.9-1.9,8.8l-0.6,2.2c-0.2,0.7-0.5,1.4-0.7,2.1c-0.5,1.4-1,2.8-1.6,4.2c-2.2,5.5-4.8,10.9-7.4,16.3
			c-5.2,10.7-11,21.1-16.6,31.5c-2.8,5.2-5.7,10.4-8,15.7c-2.3,5.4-4.1,11-5.6,16.6c-0.8,2.8-1.4,5.7-1.9,8.5
			c-0.1,0.7-0.2,1.4-0.3,2.1l-0.3,1.3l-0.3,1.1c-0.5,1.5-1.1,2.9-1.6,4.3c-2.4,5.5-5.1,10.8-7.9,16.1c-0.7,1.3-1.4,2.6-2.2,3.9
			c-0.4,0.7-0.7,1.3-1.2,2l-0.3,0.5l-0.2,0.4c-0.2,0.3-0.3,0.6-0.4,0.9c-1.1,2.5-1.6,5.4-2.1,8.3c-0.2,1.4-0.4,2.9-0.5,4.3
			c-0.1,1.4-0.3,3-0.5,4.5c-0.4,3-0.9,5.9-1.4,8.8c-1,5.9-2.1,11.7-3.4,17.5c-0.2,0.7-0.4,1.5-0.6,2.2c-0.2,0.8-0.4,1.5-0.7,2.1
			c-0.4,1.4-0.8,2.8-1.2,4.3c-0.8,2.9-1.5,5.7-2.4,8.6c-0.3,0.7-0.5,1.4-0.9,2.2c-0.4,0.7-0.8,1.3-1.3,2c-0.9,1.2-1.9,2.4-2.9,3.5
			c-1,1.1-2,2.2-3.2,3.2c-0.3,0.3-0.6,0.5-0.9,0.7c-0.2,0.1-0.5,0.2-0.7,0.3c-0.2,0-0.4,0.1-0.6,0.1c-0.8,0.1-1.5,0.1-2.3,0
			c-1.5-0.1-3-0.2-4.5-0.5c-1.5-0.2-3-0.5-4.3-1.1c-1.4-0.6-2.7-1.3-3.9-2.1C177.1,508.2,176,507.2,174.8,506.4z"/>
	</g>
	<g>
		<path class="st10" d="M244.9,370.8c2.2,10.1,4.5,20.3,7.2,30.3c0.7,2.5,1.4,5,2.2,7.4c0.8,2.4,1.7,4.9,2.7,7.3
			c0.9,2.4,1.9,4.9,2.5,7.5c0.6,2.6,1,5.2,1.1,7.9c0.3,5.2,0.2,10.5-0.3,15.7c-0.5,5.2-1.2,10.4-2.3,15.5
			c-1.1,5.1-2.4,10.2-4.1,15.2c-1.8,5-3.9,9.9-7.2,14.3l0.2-1.3l0-0.1c0,0,0,0,0,0s0,0,0,0c0,0,0.1,0.1,0.1,0.1
			c0.1,0.1,0.2,0.2,0.3,0.3c0.2,0.2,0.5,0.5,0.8,0.7c0.6,0.4,1.3,0.8,2.1,1.1c1.5,0.6,3.1,1.2,4.7,1.5c1.6,0.4,3.3,0.6,5,0.8
			c1.7,0.1,3.4,0.1,5,0l-1.2,0.9l4.1-9.9l2-4.9l0.3-0.6c0.1-0.2,0.3-0.6,0.4-0.8l0.4-0.6l0.4-0.6l1.7-2.1c2.2-2.8,4.2-5.6,5.5-8.7
			c0.7-1.5,1.2-3.1,1.5-4.7c0.2-1.6,0.2-3.2,0-5c-0.3-3.4-0.9-7-1.5-10.5c-0.6-3.5-1.2-7.1-1.6-10.6c-0.5-3.6-0.8-7.2-0.9-10.8
			c-0.1-1.8,0-3.6,0-5.4c0-0.9,0.1-1.8,0.2-2.7l0.1-1.4l0.2-1.4c0.2-1.8,0.5-3.6,0.8-5.3c0.3-1.8,0.6-3.5,0.8-5.3
			c0.5-3.5,0.9-7,1.2-10.6c0.6-7.1,0.6-14.2,0.3-21.3c-0.1-1.8-0.1-3.6,0-5.4c0.1-1.8,0.4-3.6,0.7-5.4c0.7-3.5,1.6-7,2.6-10.4
			c2-6.9,4.5-13.6,7.3-20.1c-1.2,3.3-2.4,6.7-3.5,10.1c-1.1,3.4-2.1,6.8-3,10.3c-1.7,6.9-3.3,13.9-2.6,20.9
			c0.4,7.1,0.6,14.3,0.2,21.5c-0.2,3.6-0.5,7.2-1,10.7c-0.2,1.8-0.4,3.6-0.7,5.3c-0.3,1.8-0.5,3.5-0.7,5.3c-0.4,3.5-0.4,7-0.3,10.5
			c0.1,3.5,0.5,7,1,10.5c0.5,3.5,1.1,7,1.7,10.5c0.6,3.5,1.3,7,1.6,10.7c0.2,1.8,0.2,3.7,0,5.7c-0.3,1.9-0.9,3.7-1.7,5.5
			c-1.5,3.5-3.7,6.5-5.9,9.3l-1.6,2.1l-0.4,0.5l-0.3,0.5c-0.1,0.1-0.1,0.2-0.2,0.4l-0.3,0.6l-2.1,4.9l-4.1,9.9l-0.3,0.8l-0.9,0.1
			c-1.9,0.2-3.7,0.1-5.5,0c-1.8-0.1-3.6-0.4-5.4-0.8c-1.8-0.4-3.5-1-5.2-1.7c-0.9-0.4-1.7-0.8-2.5-1.4c-0.4-0.3-0.8-0.6-1.2-1
			c-0.2-0.2-0.4-0.4-0.6-0.6c-0.1-0.1-0.2-0.2-0.3-0.4c0-0.1-0.1-0.1-0.1-0.2l-0.1-0.1c0-0.1,0-0.1-0.1-0.2l-0.2-0.7l0.5-0.6
			c3-3.9,5.1-8.6,6.9-13.4c1.7-4.8,3.1-9.8,4.2-14.8c1.1-5,2-10.1,2.5-15.2c0.6-5.1,0.9-10.2,0.6-15.4c-0.1-2.6-0.4-5.1-0.9-7.6
			c-0.5-2.5-1.4-4.9-2.3-7.3c-0.9-2.4-1.8-4.9-2.5-7.4c-0.7-2.5-1.4-5-2-7.6C248.6,391.2,246.6,381,244.9,370.8z"/>
	</g>
	<g>
		<path class="st10" d="M262.9,334.8c5.2-1.5,10.5-2.7,15.9-3.7c5.4-0.9,10.8-1.7,16.3-1.9c2.7-0.1,5.5,0.1,8.2,0.4
			c2.7,0.4,5.4,0.9,8.1,1.4c5.3,1.1,10.6,2.2,16,3.2c5.3,1,10.7,1.7,16,2.1c2.7,0.3,5.4,0.3,8,0.4c2.7,0,5.4,0,8-0.2
			c1.3-0.1,2.7-0.1,4-0.3l4-0.5c1.3-0.1,2.6-0.4,4-0.6c1.3-0.2,2.6-0.4,4-0.7c5.3-1.1,10.6-2.4,15.8-3.7c21-5.1,41.8-11.5,63-16.6
			c10.6-2.6,21.2-4.9,32-6.6c5.4-0.8,10.8-1.5,16.2-2c5.4-0.5,10.9-0.8,16.3-0.6c-10.9,0.3-21.6,2-32.2,4c-10.6,2-21.2,4.6-31.6,7.4
			c-10.5,2.8-20.9,5.8-31.4,8.8c-10.5,2.9-20.9,5.8-31.5,8.5c-5.3,1.3-10.6,2.5-15.9,3.6c-1.3,0.3-2.7,0.5-4.1,0.7
			c-1.4,0.2-2.7,0.5-4.1,0.6l-4.1,0.5c-1.4,0.2-2.7,0.2-4.1,0.3c-2.7,0.2-5.5,0.1-8.2,0.1c-2.7-0.1-5.5-0.2-8.2-0.5
			c-5.5-0.5-10.9-1.4-16.2-2.5c-5.3-1.1-10.6-2.4-15.9-3.6c-2.6-0.6-5.3-1.1-7.9-1.6c-2.6-0.4-5.3-0.6-8-0.6
			c-5.4-0.1-10.8,0.5-16.2,1.2c-2.7,0.4-5.4,0.8-8,1.3C268.2,333.7,265.5,334.2,262.9,334.8z"/>
	</g>
	<g>
		<path class="st15" d="M459.1,316.9c0.8,4,1.2,8,1.8,12c0.5,4,1.2,8,1.9,11.9c0.8,3.9,2.4,7.6,4.6,10.9c0.6,0.9,1.1,1.6,1.7,2.5
			c0.1,0.1,0.2,0.3,0.2,0.6c0,0.1,0,0.2,0,0.4c0,0.1-0.1,0.2-0.1,0.2l-0.1,0.1l-0.1,0.2l-0.5,0.6l-1,1.1c-1.3,1.5-2.7,3-4,4.6
			c-2.6,3.1-5.1,6.2-7.4,9.5c-1.1,1.6-2.2,3.3-3,5c-0.2,0.4-0.3,0.9-0.4,1.2c-0.1,0.4-0.1,0.7,0,0.7c0,0,0,0,0.3,0
			c0.1,0,0.3-0.1,0.5-0.1c0.2-0.1,0.4-0.2,0.6-0.3c1.6-0.8,3.1-2.2,4.6-3.5c1.5-1.3,2.9-2.8,4.2-4.2c2.7-2.9,5.4-5.9,7.9-9l0.7-0.9
			l1,0.6l8.9,5.3l1.1,0.6l-0.5,1.1c-2,4.2-3.9,8.5-5.5,12.8c-0.8,2.2-1.6,4.4-2.1,6.5c-0.3,1.1-0.5,2.2-0.6,3.2c0,0.5,0,1,0.1,1.3
			c0,0.2,0.1,0.3,0.1,0.4c0,0,0,0,0,0c0,0,0,0,0,0c0,0,0,0,0,0c0,0,0,0,0,0c0.1,0,0.2,0,0.3-0.2c0.3-0.2,0.7-0.5,1-0.9
			c0.7-0.7,1.4-1.6,2-2.6c1.2-1.9,2.3-3.9,3.4-6c2.1-4.1,4-8.4,5.7-12.7l0.5-1.3l1.3,0.4c1.6,0.5,3.3,1,5,1.5c1.7,0.4,3.4,0.8,5,1
			c1.7,0.2,3.5,0.2,5.2,0.3c1.8,0,3.5,0,5.3,0l1.3,0l0.2,1.3c0.5,4,1.2,8.1,2.1,12c0.5,2,1,3.9,1.7,5.7c0.4,0.9,0.8,1.8,1.2,2.5
			c0.5,0.7,1.1,1.3,1.3,1.2c0.1,0,0.2,0,0.3-0.1c0.1-0.2,0.3-0.4,0.5-0.8c0.3-0.8,0.5-1.7,0.6-2.7c0.2-1.9,0.2-4,0.1-6
			c-0.2-4-0.7-8.1-1.4-12.1l-0.2-1.1l1-0.3l9.6-2.6l0.9-0.3l0.3,0.9c1.2,3.1,2.5,6.3,4.2,9.2c0.8,1.5,1.7,2.9,2.8,4.1
			c0.5,0.6,1.1,1.1,1.7,1.4c0.6,0.3,1.1,0.2,1.6-0.1c1-0.7,1.2-2.4,1-3.9c-0.2-1.6-0.8-3.2-1.4-4.8c-1.2-3.1-2.9-6.1-4.7-9l-0.3-0.5
			l0.4-0.3c1.9-1.3,3.6-3,5.1-4.8c1.5-1.8,2.7-3.8,3.7-6c1.9-4.4,3.8-8.7,5.5-13.2c-1.6,4.5-3.2,9-5,13.4c-0.9,2.2-2.1,4.4-3.6,6.3
			c-1.5,1.9-3.2,3.7-5.1,5.2l0.1-0.8c1.9,2.9,3.7,5.9,5.1,9.1c0.7,1.6,1.3,3.3,1.6,5.1c0.1,0.9,0.2,1.9,0,2.8c-0.2,1-0.7,2-1.6,2.7
			c-0.5,0.3-1,0.6-1.6,0.6c-0.3,0.1-0.6,0-0.9,0c-0.3-0.1-0.5-0.1-0.8-0.3c-1-0.4-1.7-1.1-2.3-1.8c-1.3-1.3-2.2-2.8-3.1-4.3
			c-1.8-3-3.2-6.2-4.5-9.4l1.3,0.7l-9.5,2.8l0.8-1.3c0.7,4.1,1.3,8.2,1.6,12.4c0.1,2.1,0.2,4.2,0,6.4c-0.1,1.1-0.3,2.2-0.7,3.4
			c-0.2,0.6-0.5,1.2-1.1,1.8c-0.2,0.1-0.3,0.3-0.5,0.4c-0.2,0.1-0.4,0.2-0.6,0.3c-0.4,0.1-0.9,0.2-1.3,0.2c-0.5,0-0.8-0.2-1.2-0.3
			c-0.3-0.2-0.7-0.4-0.9-0.6c-0.5-0.5-0.9-0.9-1.2-1.4c-0.7-1-1.1-2-1.5-3c-0.8-2-1.4-4-1.9-6.1c-1-4.1-1.7-8.2-2.2-12.3l1.5,1.3
			c-1.8,0.1-3.6,0.1-5.4,0.1c-1.8,0-3.6-0.1-5.5-0.2c-1.9-0.2-3.7-0.6-5.5-1c-1.8-0.4-3.5-0.9-5.3-1.5l1.9-0.9
			c-1.7,4.4-3.6,8.7-5.8,13c-1.1,2.1-2.2,4.2-3.6,6.2c-0.7,1-1.4,2-2.3,3c-0.5,0.5-1,1-1.7,1.4c-0.3,0.2-0.8,0.4-1.3,0.5
			c-0.3,0-0.6,0.1-0.8,0c-0.3,0-0.6-0.1-0.9-0.2c-0.3-0.1-0.5-0.3-0.8-0.5c-0.2-0.2-0.4-0.4-0.5-0.6c-0.3-0.4-0.4-0.9-0.5-1.3
			c-0.2-0.8-0.2-1.5-0.1-2.2c0.1-1.3,0.4-2.5,0.6-3.7c0.6-2.4,1.4-4.6,2.2-6.9c1.7-4.4,3.6-8.7,5.7-13l0.5,1.8l-8.9-5.4l1.7-0.3
			c-2.6,3.1-5.3,6.1-8.2,9.1c-1.4,1.5-2.9,2.9-4.4,4.2c-1.6,1.3-3.1,2.7-5.1,3.7c-0.5,0.2-1.1,0.5-1.8,0.6c-0.2,0-0.4,0-0.6,0
			c-0.2,0-0.4-0.1-0.7-0.1c-0.2-0.1-0.4-0.2-0.6-0.4c-0.2-0.2-0.4-0.4-0.5-0.6c-0.4-0.9-0.3-1.6-0.1-2.2c0.1-0.6,0.4-1.1,0.6-1.6
			c0.9-2,2.1-3.6,3.3-5.3c2.4-3.3,5.1-6.4,7.7-9.4c1.3-1.5,2.7-3,4.1-4.5l1-1.1l0.5-0.5l0.1-0.1l0,0c0,0-0.1,0.1-0.1,0.1
			c0,0.1,0,0.1,0,0.2c0,0.1,0,0,0-0.1c-0.4-0.7-1.1-1.6-1.6-2.5c-2.2-3.5-3.6-7.4-4.4-11.5c-0.7-4-1.1-8-1.5-12
			C460,324.9,459.7,320.9,459.1,316.9z"/>
	</g>
	<g>
		<path class="st10" d="M509.3,382.8c-2.7,10.2-6.2,20.3-10,30.2c-1.9,4.9-3.9,9.9-6.1,14.7c-1.1,2.4-2.2,4.8-3.3,7.2
			c-1.2,2.4-2.3,4.8-3.5,7.2c-4.8,9.5-10.2,18.7-16,27.6c-2.9,4.4-5.9,8.8-9.1,13.1c-3.2,4.3-6.4,8.5-9.8,12.6l-0.3-2.1
			c-0.1,0,0,0,0,0l0.1,0.1c0.1,0,0.2,0.1,0.3,0.1c0.2,0.1,0.4,0.1,0.6,0.2c0.4,0.1,0.9,0.2,1.4,0.3c0.9,0.2,1.9,0.3,2.9,0.5
			c2,0.2,4,0.4,5.9,0.4c2,0,3.9-0.2,5.9-0.6c1.9-0.3,3.9-0.8,5.7-1.4l-0.8,0.7c1.7-3.1,3.5-6.1,5.5-9c1-1.4,2.1-2.9,3.2-4.2
			c1.1-1.4,2.4-2.7,3.9-3.8c0.8-0.6,1.6-1.1,2.5-1.5c0.9-0.4,1.9-0.7,2.7-0.9c0.9-0.2,1.6-0.4,2.2-0.6c0.6-0.3,1.2-0.7,1.8-1.2
			c1.2-1,2.3-2.3,3.3-3.6c0.5-0.7,1-1.3,1.5-2l0.7-1l0.7-1.1c1.8-2.8,3.4-5.9,4.8-8.9c1.5-3.1,2.9-6.2,4.2-9.4
			c2.7-6.3,5.4-12.7,8.4-19c2.9-6.3,6.1-12.5,10-18.3c3.9-5.7,7.8-11.4,11.4-17.2c3.7-5.8,7.1-11.8,10.1-18
			c2.9-6.2,5.6-12.6,6.8-19.4c-0.4,3.4-1.3,6.8-2.3,10.1c-1.1,3.3-2.4,6.5-3.7,9.7c-2.8,6.3-6.1,12.4-9.6,18.4
			c-3.5,5.9-7.3,11.8-11.1,17.5c-3.7,5.7-6.7,11.9-9.5,18.2c-2.8,6.3-5.4,12.7-8.1,19c-1.4,3.2-2.7,6.4-4.2,9.5
			c-1.5,3.2-3,6.3-4.9,9.3l-0.7,1.1l-0.8,1.1c-0.5,0.7-1,1.4-1.6,2.1c-1.1,1.4-2.2,2.8-3.7,4c-0.7,0.6-1.6,1.2-2.5,1.6
			c-0.9,0.4-1.9,0.6-2.7,0.8c-0.8,0.2-1.5,0.4-2.1,0.7c-0.7,0.3-1.3,0.7-1.9,1.2c-1.2,0.9-2.4,2.1-3.4,3.4c-1.1,1.3-2.1,2.6-3,4
			c-1.9,2.8-3.7,5.7-5.3,8.7l-0.3,0.5l-0.5,0.2c-2.1,0.7-4.1,1.2-6.2,1.5c-2.1,0.4-4.2,0.6-6.4,0.6c-2.2,0-4.2-0.2-6.3-0.4
			c-1-0.1-2.1-0.3-3.2-0.5c-0.5-0.1-1.1-0.2-1.6-0.4c-0.3-0.1-0.5-0.2-0.8-0.3c-0.1-0.1-0.3-0.1-0.4-0.2l-0.2-0.1
			c-0.1,0-0.1-0.1-0.3-0.2l-1.4-0.9l1.1-1.3c6.7-8,13.1-16.6,18.9-25.3c5.9-8.7,11.5-17.7,16.4-27.1c5-9.3,9.4-18.9,13.6-28.6
			C502.3,402.8,506.1,392.9,509.3,382.8z"/>
	</g>
	<g>
		<path class="st10" d="M472,245.4c7.7,10.6,16,20.8,24.3,31.1c8.3,10.2,16.7,20.3,25.2,30.4c17,20,33.8,40.5,46.6,63.7
			c3.2,5.8,6,11.8,8.5,17.9c2.5,6.1,4.5,12.5,6.2,18.9c0.8,3.2,1.7,6.4,2.4,9.6c0.7,3.2,1.3,6.5,1.8,9.8c0.9,6.6,1.4,13.2,1.5,19.8
			c0.2,13.2-1.1,26.6-4.4,39.4c-3.3,12.9-8.8,25.3-17.3,35.7l-0.5-2.1c0.8,0.4,1.9,0.7,2.9,1c1,0.3,2,0.5,3.1,0.7
			c2.1,0.4,4.2,0.6,6.3,0.8c2.1,0.1,4.2,0.2,6.3,0c1-0.1,2.1-0.2,3-0.5c0.5-0.1,1-0.2,1.4-0.4c0.2-0.1,0.4-0.2,0.6-0.3
			c0.1,0,0.2-0.1,0.3-0.1c0.1,0,0.2-0.1,0.1-0.1l-0.4,0.5l7.7-18.7l0.1-0.3l0.3-0.3c0.8-0.6,1.7-1.4,2.5-2.2
			c0.8-0.8,1.5-1.7,2.2-2.6c1.4-1.8,2.6-3.8,3.5-5.8c1-2.1,1.7-4.2,2.1-6.5l0.2-0.8l0.1-0.9l0.2-1.7l0.2-3.5
			c0.4-9.5,0.4-19,0.5-28.6c0.1-9.5,0.2-19.1,0.6-28.7c0.2-4.8,0.5-9.6,1.1-14.4c0.1-1.2,0.3-2.4,0.5-3.6c0.2-1.2,0.3-2.4,0.6-3.6
			c0.5-2.4,0.9-4.7,1.5-7c1-4.7,2.3-9.3,3.2-13.9c0.4-2.3,0.7-4.6,0.5-6.7c-0.2-2.2-0.9-4.2-2.1-6.1c-1.2-1.9-2.6-3.8-4-5.7
			c-1.4-1.9-2.9-3.9-4.2-5.9c-2.7-4-5.1-8.3-6.7-13c-1.7-4.6-2.5-9.5-2.6-14.5c-0.1-4.8,0.1-9.6,0.4-14.4c0.6-9.6,1.7-19.1,3.2-28.6
			c1.5-9.5,3.5-18.8,5.8-28.1c1.2-4.6,2.5-9.2,3.9-13.8c0.7-2.3,1.3-4.5,1.9-6.8l0.8-3.5c0.3-1.2,0.5-2.3,0.7-3.5
			c1.7-9.3,2.3-18.8,2.3-28.3c0-9.5-0.8-19-2.4-28.4c-0.8-4.7-1.8-9.3-3.3-13.8l-1.2-3.3c-0.4-1.1-0.9-2.2-1.3-3.4
			c-0.8-2.3-1.5-4.5-2.3-6.8c-1.4-4.5-2.8-9.1-4.8-13.4c-2-4.3-4.5-8.3-7.9-11.6c-3.3-3.3-7.4-6-11.7-7.9c-4.3-1.9-9.1-2.7-13.8-2.8
			c-4.7-0.1-9.5,0.5-14.1,1.5c-4.6,1.1-9.2,2.5-13.5,4.5c4.3-2.1,8.9-3.6,13.5-4.8c4.6-1.1,9.4-1.8,14.2-1.8c4.8,0,9.6,0.8,14.1,2.6
			c4.4,1.9,8.6,4.5,12,7.9c3.5,3.4,6.2,7.5,8.2,11.8c2.1,4.4,3.5,8.9,5,13.5c0.7,2.3,1.5,4.5,2.3,6.7c0.4,1.1,0.9,2.2,1.3,3.3
			l1.3,3.4c1.6,4.6,2.6,9.3,3.5,14c1.7,9.4,2.6,19,2.7,28.6c0.1,9.6-0.5,19.2-2.1,28.7c-0.2,1.2-0.4,2.4-0.7,3.5l-0.7,3.5
			c-0.6,2.3-1.2,4.7-1.9,7c-1.4,4.6-2.7,9.1-3.8,13.7c-2.3,9.2-4.2,18.6-5.6,28c-1.5,9.4-2.5,18.8-3.1,28.3
			c-0.3,4.7-0.4,9.5-0.4,14.2c0.1,4.6,0.9,9.2,2.5,13.6c1.6,4.4,3.8,8.5,6.5,12.3c1.3,1.9,2.7,3.8,4.2,5.7c1.4,1.9,2.9,3.8,4.2,6
			c0.3,0.5,0.6,1.1,0.9,1.7c0.3,0.6,0.5,1.2,0.7,1.8c0.4,1.2,0.7,2.5,0.8,3.8c0.2,2.6-0.1,5.1-0.5,7.5c-0.9,4.8-2.2,9.4-3.2,14
			c-0.5,2.3-1,4.6-1.4,7c-0.2,1.2-0.4,2.3-0.6,3.5c-0.2,1.1-0.3,2.3-0.4,3.5c-0.5,4.7-0.8,9.4-1,14.2c-0.4,9.5-0.5,19-0.6,28.6
			c-0.1,9.5-0.1,19.1-0.5,28.7l-0.3,3.6l-0.2,1.8l-0.1,0.9l-0.2,0.9c-0.5,2.5-1.3,4.9-2.3,7.1c-1.1,2.3-2.4,4.4-3.9,6.4
			c-0.8,1-1.6,1.9-2.5,2.8c-0.9,0.9-1.8,1.7-2.8,2.6l0.5-0.6l-7.8,18.6l-0.1,0.3l-0.3,0.2c-0.3,0.2-0.4,0.3-0.5,0.4
			c-0.2,0.1-0.3,0.2-0.4,0.2c-0.3,0.1-0.6,0.3-0.9,0.4c-0.6,0.2-1.2,0.4-1.7,0.5c-1.1,0.3-2.3,0.4-3.4,0.5c-2.3,0.2-4.5,0.2-6.7,0
			c-2.2-0.2-4.4-0.4-6.6-0.8c-1.1-0.2-2.2-0.5-3.3-0.8c-1.1-0.3-2.1-0.6-3.3-1.1l-1.6-0.7l1.2-1.4c8.2-10,13.7-22.1,16.9-34.7
			c3.3-12.6,4.6-25.7,4.4-38.7c-0.1-6.5-0.5-13.1-1.4-19.5c-0.4-3.2-1-6.4-1.7-9.6c-0.7-3.2-1.5-6.4-2.3-9.5
			c-1.6-6.3-3.6-12.6-6-18.7c-2.4-6.1-5.1-12-8.2-17.8c-6.2-11.5-13.6-22.4-21.3-33c-7.8-10.6-16.1-20.7-24.5-30.9
			c-8.3-10.2-16.6-20.4-24.8-30.7C487.7,266.5,479.6,256.2,472,245.4z"/>
	</g>
	<g>
		<path class="st10" d="M559.9,106.9c-5.3-1.5-10.6-3.1-15.9-4c-5.3-0.9-10.7-1.1-16.2-1.2c-2.7-0.1-5.5-0.1-8.2-0.1
			c-2.7-0.1-5.5-0.1-8.2-0.2c-5.5-0.1-11-0.3-16.5-0.8c5.5-0.8,11-1.3,16.5-1.6c2.8-0.2,5.5-0.2,8.3-0.3c2.8,0,5.5-0.1,8.3,0
			c2.8,0.1,5.5,0.1,8.3,0.4c2.8,0.3,5.6,0.8,8.3,1.5C549.9,102,555.1,104.3,559.9,106.9z"/>
	</g>
	<g>
		<path class="st10" d="M515.5,113.8c-1.9-0.8-3.7-1.9-5.5-2.8c-1.8-1-3.7-1.9-5.5-2.8c-3.7-1.9-7.4-3.6-11.2-5.2
			c-7.6-3.2-15.3-5.9-23.4-6.1c-2-0.1-4,0-6,0.2c-2,0.2-3.9,0.7-5.8,1.2c-1.8,0.6-3.6,1.4-5.1,2.6c-0.4,0.3-0.7,0.6-1,0.9
			c-0.3,0.3-0.5,0.7-0.8,1c-0.5,0.8-0.9,1.7-1.4,2.6c-1.6,3.7-3.1,7.6-4.6,11.5c-0.8,1.9-1.6,3.8-2.6,5.7c-0.5,0.9-1,1.8-1.6,2.7
			c-0.3,0.4-0.6,0.8-1,1.2c-0.4,0.4-0.8,0.7-1.4,0.7c0.5-0.1,0.9-0.5,1.2-0.9c0.3-0.4,0.6-0.8,0.8-1.3c0.5-0.9,0.9-1.8,1.2-2.8
			c0.7-1.9,1.4-3.9,2-5.9c1.3-3.9,2.3-7.9,3.9-11.9c0.4-1,0.8-2,1.3-3c0.3-0.5,0.7-1,1.1-1.5c0.4-0.4,0.8-0.9,1.2-1.2
			c1.8-1.5,3.8-2.5,5.8-3.2c4.1-1.4,8.5-1.9,12.8-1.7c4.3,0.2,8.5,1,12.6,2.2c4,1.3,7.9,2.9,11.7,4.7c3.8,1.8,7.4,3.9,10.9,6.1
			c1.8,1.1,3.5,2.2,5.2,3.4l2.6,1.8C513.8,112.6,514.6,113.3,515.5,113.8z"/>
	</g>
	<g>
		<path class="st10" d="M149,73.8c1.8,0.1,3.5,0.5,5.2,0.9c1.7,0.5,3.3,1,4.9,1.7c1.6,0.7,3.1,1.4,4.6,2.3c1.5,0.9,3,1.8,4.3,3.1
			c-1.8-0.1-3.5-0.5-5.2-0.9c-1.7-0.5-3.3-1-4.9-1.7c-1.6-0.7-3.1-1.4-4.6-2.3C151.8,76,150.4,75,149,73.8z"/>
	</g>
	<g>
		<path class="st10" d="M182.6,87.6c2.5,1.4,5.1,2.4,7.8,3.2c2.7,0.8,5.4,1.4,8.2,1.8c5.6,0.8,11.2,0.7,16.7-0.1
			c2.8-0.4,5.5-1,8.2-1.7c2.7-0.7,5.4-1.5,8.1-2.3c2.7-0.8,5.4-1.6,8.3-2.3c2.8-0.6,5.6-1.1,8.5-1.4c5.7-0.6,11.5-0.4,17.2,0
			l4.3,0.4c1.4,0.1,2.8,0.3,4.2,0.5c2.8,0.3,5.6,0.8,8.5,1.3c11.3,2.1,22.1,5.8,32.8,9.6c10.7,3.9,21.2,7.9,32,10.9
			c10.8,3.1,21.9,5,33.1,5.6c11.3,0.5,22.6,0.2,33.8-0.8c11.2-1.1,22.4-2.8,33.3-6c-5.3,2-10.8,3.4-16.4,4.6
			c-5.5,1.2-11.1,2.1-16.8,2.9c-11.3,1.3-22.7,1.9-34,1.7c-11.4-0.2-22.8-2.2-33.8-5.2c-11-3-21.6-7.1-32.3-10.9
			c-10.6-3.8-21.3-7.4-32.3-9.6c-11-2-22.3-3.4-33.4-2.8c-2.8,0.2-5.5,0.6-8.3,1.1c-2.7,0.6-5.4,1.3-8.2,2c-2.7,0.8-5.5,1.5-8.2,2.2
			c-2.8,0.6-5.6,1.2-8.4,1.5c-5.7,0.6-11.5,0.5-17.1-0.6C192.9,92.4,187.4,90.5,182.6,87.6z"/>
	</g>
	<g>
		<path class="st10" d="M603.2,132.4c2.2,2.5,4.6,4.7,6.9,7.1c2.2,2.4,4.4,5,6.3,7.7c3.9,5.4,7,11.3,9.2,17.6
			c2.2,6.3,3.7,12.8,4.5,19.4c0.2,1.7,0.3,3.3,0.4,5l0.2,2.5c0,0.8,0,1.7,0,2.5l0,5c0,1.7-0.1,3.3-0.1,5l-0.5,19.8
			c-0.1,6.6-0.2,13.2,0,19.7c0.2,6.6,0.7,13.1,1.8,19.5c1.1,6.4,2.9,12.7,5.2,18.8l-1.3-0.9c0.6,0,0.7,0.1,1.1,0.1
			c0.3,0.1,0.6,0.1,0.8,0.2c0.5,0.2,1,0.4,1.5,0.6c1,0.4,1.9,0.9,2.8,1.3c1.8,1,3.5,2,5.2,3.2c3.3,2.2,6.5,4.7,9.6,7.2
			c1.5,1.3,3.1,2.5,4.6,3.8c1.5,1.3,3.1,2.6,4.5,4.2c1.4,1.5,2.6,3.2,3.7,5c1,1.8,1.9,3.7,2.6,5.7c1.3,3.9,1.9,8.1,1.9,12.1
			c0.1,4.1-0.3,8.1-0.8,12.1c-0.5,4-1,7.9-1.2,11.7c-0.2,3.8-0.1,7.7,1.4,11l4.5,9.8l-6.9-8.3c-1.1-1.4-2.6-2.8-4-4
			c-1.5-1.3-3-2.5-4.6-3.6c-3.2-2.2-6.6-4.1-10.2-5.7c-3.6-1.7-7.4-3.4-10.7-6c-3.4-2.6-5.8-6.3-7.4-10.1c-1.6-3.8-2.7-7.7-3.6-11.7
			c-0.9-3.9-1.6-7.9-2.1-11.9c-0.5-4-0.8-8-0.9-12.1c-0.1-4-0.1-8,0.3-12.1l0.1,0.5c-1.6-4.3-2.6-8.5-3.5-12.9
			c-0.9-4.3-1.5-8.7-1.9-13.1c-0.4-4.4-0.6-8.8-0.4-13.3l0.1-6.6c0-2.2,0-4.4,0-6.6c-0.1-8.8-0.5-17.5-1.3-26.3
			c-0.4-4.4-0.8-8.7-1.4-13.1c-0.3-2.2-0.6-4.3-1-6.5c-0.4-2.2-0.7-4.3-1.5-6.4c0.8,2,1.2,4.2,1.7,6.4c0.4,2.2,0.8,4.3,1.2,6.5
			c0.7,4.3,1.2,8.7,1.7,13.1c0.9,8.7,1.6,17.5,1.9,26.3c0.1,2.2,0.1,4.4,0.1,6.6l0,6.6c-0.1,4.4,0.2,8.7,0.6,13.1
			c0.4,4.3,1.1,8.7,2,12.9c0.9,4.2,2.1,8.5,3.6,12.5l0.1,0.2l0,0.3c-0.5,7.8-0.1,15.8,0.9,23.7c0.5,3.9,1.2,7.8,2.1,11.7
			c0.9,3.8,2,7.6,3.5,11.2c1.5,3.5,3.6,6.7,6.7,9c3,2.3,6.6,3.9,10.2,5.6c3.7,1.7,7.3,3.6,10.7,5.9c1.7,1.2,3.3,2.4,4.9,3.7
			c1.6,1.4,3,2.7,4.4,4.4l-2.4,1.5c-0.9-2-1.4-4.1-1.6-6.2c-0.2-2.1-0.2-4.1-0.1-6.2c0.2-4.1,0.8-8,1.2-11.9
			c0.4-3.9,0.8-7.8,0.8-11.7c0-3.9-0.5-7.7-1.7-11.3c-0.6-1.8-1.4-3.5-2.3-5.1c-1-1.6-2.1-3.2-3.4-4.5c-1.2-1.4-2.7-2.7-4.2-4
			c-1.5-1.3-3-2.6-4.5-3.8c-3-2.5-6.1-4.9-9.4-7.1c-1.6-1.1-3.3-2.1-4.9-3.1c-0.8-0.4-1.7-0.9-2.6-1.2c-0.4-0.2-0.9-0.3-1.3-0.5
			c-0.2-0.1-0.4-0.1-0.6-0.2c-0.2,0-0.5-0.1-0.4-0.1l-1.3-0.9c-2.3-6.3-4.1-12.7-5.2-19.3c-0.6-3.3-0.9-6.6-1.2-9.9
			c-0.1-1.7-0.2-3.3-0.3-5c0-1.7-0.1-3.3-0.1-5c-0.1-6.6,0.1-13.3,0.3-19.9l0.8-19.8c0.3-6.6,0.3-13.1-0.2-19.7
			c-0.7-6.5-1.9-13-4-19.2c-2.1-6.2-5-12.2-8.7-17.6l-1.4-2c-0.5-0.7-1-1.3-1.5-2c-1-1.3-2.1-2.6-3.1-3.8
			C607.7,137.3,605.3,134.9,603.2,132.4z"/>
	</g>
	<g>
		<path class="st10" d="M466.4,473.7c1.6,0.2,3.1,0.7,4.5,1.2c1.4,0.5,2.8,1.2,4,1.8c1.3,0.6,2.5,1.1,3.8,1.6
			c1.3,0.5,2.7,0.8,4.3,1.2c-1.4,0.8-3.1,1.2-4.7,1.1c-1.6,0-3.3-0.5-4.7-1.2c-1.5-0.7-2.7-1.6-3.9-2.5
			C468.6,476,467.4,475,466.4,473.7z"/>
	</g>
	<g>
		<path class="st10" d="M577.2,500.1c1.7,0.1,3.2,0.4,4.7,0.6c1.5,0.3,3,0.6,4.4,1c1.5,0.4,2.9,0.7,4.4,1.2c1.5,0.4,3,0.9,4.5,1.6
			c-1.6,0.6-3.2,0.7-4.8,0.7c-1.6,0-3.2-0.2-4.8-0.6c-1.6-0.4-3.1-0.9-4.5-1.7C579.7,502.2,578.3,501.3,577.2,500.1z"/>
	</g>
	<g>
		<path class="st10" d="M253.2,477.5c1.7,0.4,3.3,0.7,4.8,0.9c1.5,0.3,3.1,0.5,4.6,0.7c1.6,0.2,3.1,0.4,4.7,0.7
			c1.6,0.3,3.2,0.6,4.9,1.2c-1.6,0.6-3.3,1-5,1.1c-1.7,0.2-3.4,0.2-5.1-0.1c-1.7-0.2-3.4-0.7-5-1.4
			C255.7,479.9,254.2,478.9,253.2,477.5z"/>
	</g>
	<g>
		<g>
			<path class="st10" d="M215.1,291.6c-1.7,2.6-2.7,5.6-3,8.7c-0.3,3.1,0.2,6.2,1.4,9c1.2,2.9,2.8,5.5,4,8.4c0.6,1.5,1,3,1.2,4.6
				c0.2,1.6,0.2,3.2,0.2,4.7c0,1.5,0.1,3.1,0.4,4.5c0.1,0.7,0.4,1.4,0.7,2c0.3,0.6,0.7,1.2,1.2,1.6c1.9,1.9,4.9,2.3,7.7,1.9
				c1.4-0.2,2.8-0.6,4.1-1.2c0.3-0.1,0.7-0.3,1-0.4l1-0.5c0.7-0.3,1.3-0.7,1.9-1.1c2.5-1.6,4.6-3.6,6.4-6c1.8-2.3,3.2-4.9,4.2-7.7
				c1-2.8,1.6-5.7,1.7-8.6c0.2-5.9-1.6-11.9-4.6-17.2c-0.8-1.3-1.6-2.6-2.6-3.8c-0.9-1.2-1.9-2.4-3-3.4c-2.2-2.1-4.9-3.7-8-3.9
				c-3-0.2-6.1,0.7-8.9,2.1C219.2,287,216.8,289.1,215.1,291.6z M215.1,291.6c1.7-2.6,4.1-4.7,6.8-6.3c2.7-1.5,5.8-2.5,8.9-2.4
				c1.6,0.1,3.2,0.4,4.6,1.1c1.5,0.6,2.8,1.5,4,2.6c1.2,1,2.3,2.1,3.4,3.3c1,1.2,2,2.4,2.9,3.7c3.6,5.2,5.9,11.5,6,18
				c0.1,6.5-2.2,13-6.1,18.2c-4,5.2-9.7,9.1-16.4,9.9c-1.7,0.2-3.4,0.1-5.1-0.4c-1.7-0.4-3.3-1.4-4.5-2.7c-0.6-0.7-1-1.4-1.4-2.2
				c-0.3-0.8-0.6-1.6-0.7-2.5c-0.3-1.7-0.2-3.3-0.1-4.8c0.1-1.6,0.2-3.1,0.1-4.6c-0.1-1.5-0.4-3-0.9-4.4c-1-2.9-2.5-5.6-3.5-8.6
				C210.9,303.6,211.7,296.8,215.1,291.6z"/>
		</g>
	</g>
	<g>
		<g>
			<path class="st10" d="M186.9,175.4c-4,4.6-7.2,9.8-9.3,15.5c-1.1,2.8-1.8,5.8-2.2,8.8c-0.4,3-0.6,6-0.1,9c0.5,3,1.8,5.8,4,7.8
				c2.2,2,4.9,3.4,7.7,4.3c2.8,1,5.8,1.6,8.7,2.3c3,0.7,5.9,1.4,8.8,2.4c2.9,1,5.8,2.1,8.5,3.7c2.7,1.5,5.2,3.4,7.6,5.3
				c4.8,3.8,9.3,7.8,14.6,10.2c5.3,2.4,11.3,3.3,16.8,1.9c5.5-1.3,10.3-5.3,12.4-10.4c1.1-2.6,1.4-5.3,1-8.1
				c-0.4-2.8-1.2-5.8-1.8-8.7c-0.7-3-1.3-6-1.7-9.1c-0.4-3.1-0.3-6.2-0.4-9.2c0-3-0.1-6-0.7-8.8c-0.6-2.9-1.7-5.6-3-8.2
				c-2.7-5.3-6.6-9.9-10.6-14.4c-2-2.3-4.1-4.4-6.3-6.4c-2.2-2-4.6-3.8-7.2-5.3c-2.6-1.5-5.4-2.6-8.3-3.1c-1.5-0.3-3-0.4-4.4-0.3
				c-1.5,0.1-3,0.5-4.4,0.9c-2.9,0.9-5.6,2.2-8.2,3.7c-2.6,1.5-5.2,3.1-7.7,4.9C195.6,166.9,190.9,170.8,186.9,175.4z M186.9,175.4
				c4-4.6,8.7-8.5,13.7-11.9c5-3.4,10-6.9,15.8-8.9c1.5-0.4,2.9-0.9,4.5-1c1.5-0.2,3.1-0.1,4.6,0.1c3,0.4,6,1.5,8.7,3
				c5.4,2.9,10,7.2,14.2,11.6c4.2,4.4,8.3,9,11.3,14.5c1.5,2.7,2.8,5.6,3.5,8.7c0.8,3.1,1,6.2,1,9.3c0.1,3,0.1,6,0.5,8.9
				c0.4,2.9,1.1,5.8,1.8,8.8c0.7,2.9,1.5,5.9,1.9,9c0.2,1.6,0.3,3.2,0.1,4.9c-0.2,1.6-0.6,3.3-1.3,4.8c-2.6,6-8.2,10.6-14.5,12.1
				c-6.3,1.5-12.9,0.4-18.6-2.3c-5.7-2.8-10.2-7.1-14.8-10.9c-2.3-1.9-4.7-3.8-7.2-5.3c-2.5-1.5-5.3-2.8-8.1-3.8
				c-2.8-1-5.7-1.8-8.6-2.6c-2.9-0.8-5.9-1.5-8.8-2.6c-2.9-1.1-5.7-2.5-7.9-4.8c-2.2-2.2-3.5-5.2-4-8.2c-0.5-3-0.2-6.1,0.2-9.1
				c0.5-3,1.3-5.9,2.4-8.8C179.6,185.1,182.9,179.9,186.9,175.4z"/>
		</g>
	</g>
	<g>
		<path class="st16" d="M138.2,206.3c0.1-0.2,0-0.4-0.2-0.5c-0.2-0.1-0.3-0.2-0.5-0.2c-0.4-0.1-0.8-0.2-1.2-0.1
			c-0.8,0-1.5,0.2-2.2,0.6c-1.4,0.7-2.3,1.9-2.9,3.2c-0.6,1.3-0.7,2.8-0.4,4.1c0.3,1.4,1,2.7,2,3.7c1.9,2.1,5,3.1,8,2.9
			c1.5-0.1,3-0.4,4.2-1.3c1.2-0.8,2.1-2.3,1.9-3.9l0.2,0.1c-0.3,0-0.6,0.1-0.9,0.3c0.2-0.3,0.5-0.6,0.9-0.7l0.1,0l0.1,0.2
			c0.8,1.7,0.2,3.8-1.1,5.2c-1.3,1.4-3.2,2.1-5,2.5c-1.8,0.3-3.8,0.2-5.6-0.3c-1.8-0.5-3.6-1.6-4.9-3c-1.3-1.4-2.3-3.3-2.5-5.2
			c-0.3-2,0.1-4.1,1.2-5.7c1-1.7,2.6-3,4.5-3.4c0.9-0.2,1.9-0.3,2.8,0c0.4,0.1,0.9,0.3,1.3,0.5c0.2,0.1,0.4,0.3,0.5,0.5
			C138.3,205.9,138.4,206.2,138.2,206.3z"/>
	</g>
	<g>
		<path class="st16" d="M133,223.5c-0.7-0.3-1.3-1.1-1.6-1.9c-0.3-0.8-0.3-1.8,0-2.7c0.3-0.9,1-1.8,1.9-2.3c0.9-0.5,1.9-0.7,2.9-0.6
			c1,0.1,2,0.5,2.8,1.2c0.8,0.7,1.3,1.7,1.4,2.6c0.1,1-0.1,1.9-0.5,2.7c-0.4,0.8-1.1,1.4-1.9,1.6c0.7-1.4,0.6-2.7,0.1-3.7
			c-0.2-0.5-0.5-0.8-0.9-1c-0.4-0.2-0.8-0.4-1.3-0.4c-0.5,0-0.9,0-1.3,0.2c-0.4,0.2-0.7,0.4-1.1,0.8
			C132.9,220.7,132.5,222,133,223.5z"/>
	</g>
	<g>
		<path class="st14" d="M109.2,255.9c2.4,2,5,3.6,7.7,4.9c2.7,1.2,5.6,2.2,8.5,2.8c2.9,0.6,5.9,1,8.9,1.3c3,0.2,6.1,0.3,9.3,0.6
			c-3,1-6.1,1.6-9.3,1.8c-3.2,0.2-6.4,0-9.6-0.7c-3.2-0.7-6.2-1.9-9-3.7C113.1,261.1,110.7,258.7,109.2,255.9z"/>
	</g>
	<g>
		<path class="st10" d="M146.4,76.1c2.7,2.4,4.6,5.7,5.8,9.1c1.2,3.4,1.9,7,2.5,10.5c0.6,3.5,1.2,6.9,2.1,10.1
			c1,3.3,2.3,6.4,4.5,9.3c-3.1-1.9-5.2-5.2-6.7-8.5c-1.5-3.4-2.3-6.9-2.9-10.4C150.5,89.2,149.9,82.4,146.4,76.1z"/>
	</g>
	<g>
		<path class="st10" d="M178.9,123.6c4.4,1.3,8.8,0.9,13-0.4c2.1-0.7,4.1-1.5,6-2.5c1.9-1,3.8-2.1,5.7-3.3c3.6-2.4,7-5.2,9.6-8.7
			c2.6-3.5,4.4-7.6,4.8-12.1c0.8,4.5-0.4,9.4-2.9,13.4c-2.4,4.1-6,7.3-9.8,9.9c-2,1.3-4,2.4-6.1,3.4c-2.1,0.9-4.4,1.7-6.7,2.2
			c-2.3,0.5-4.7,0.6-7,0.4C183.1,125.5,180.8,124.8,178.9,123.6z"/>
	</g>
	<g>
		<path class="st10" d="M300.5,94.8c-4.4,1.7-8.8,3.6-13.1,5.7c-4.2,2.2-8.3,4.6-12,7.6c-3.7,3-6.9,6.5-9.3,10.5
			c-2.3,4-4,8.6-3.6,13.2c0.2,2.3,0.9,4.4,2.2,6.2c1.3,1.8,3.2,3.2,5.2,4.3c4.1,2.2,8.7,3.5,13,6c4.3,2.5,7.7,6.3,10.1,10.6
			c2.4,4.3,4,8.9,5.1,13.6c2.2,9.4,2.6,19,5.4,27.9c2.8,8.9,7.6,17.1,14,24c6.3,6.8,14.2,12.3,22.9,15.7c8.7,3.4,18.1,4.7,27.4,3.9
			c9.3-0.7,18.4-3.4,26.5-8.1c8.1-4.7,15-11.2,21.8-17.9c6.8-6.6,13.6-13.5,21.7-18.9c4-2.7,8.4-4.9,12.8-6.8c4.4-1.9,9-3.4,13.5-5
			c4.5-1.6,9-3.1,13.3-4.9c4.4-1.8,8.6-3.9,12.5-6.5c2-1.3,3.8-2.7,5.6-4.2c1.7-1.5,3.4-3.2,4.9-5c3-3.6,5.2-7.8,6.4-12.3
			c1.2-4.5,1.5-9.3,1-13.9c-0.5-4.7-1.7-9.3-3.4-13.7c-1.7-4.4-3.9-8.6-6.3-12.7c-2.4-4.1-5-8.1-7.6-12.1c5.5,7.8,11,15.6,14.7,24.5
			c1.9,4.4,3.2,9.1,3.8,13.9c0.6,4.8,0.5,9.7-0.7,14.4c-1.2,4.7-3.5,9.2-6.5,13c-1.5,1.9-3.2,3.6-5,5.3c-1.8,1.6-3.8,3.1-5.8,4.4
			c-4,2.7-8.3,4.9-12.7,6.8c-4.4,1.9-8.9,3.5-13.4,5.2c-4.5,1.6-8.9,3.2-13.3,5.1c-4.3,1.9-8.5,4-12.4,6.6
			c-7.8,5.2-14.4,12-21.2,18.7c-6.8,6.7-13.8,13.5-22.2,18.4c-8.4,4.9-18,7.8-27.7,8.6c-9.7,0.7-19.6-0.6-28.7-4.2
			c-9.1-3.6-17.2-9.3-23.8-16.5c-6.6-7.2-11.6-15.8-14.5-25.1c-2.9-9.4-3.2-19-5.1-28.2c-1-4.6-2.4-9.1-4.7-13.1
			c-2.2-4.1-5.3-7.6-9.3-10c-3.9-2.4-8.6-3.7-12.9-6.1c-2.1-1.2-4.2-2.7-5.7-4.8c-1.5-2-2.3-4.6-2.4-7.1c-0.1-2.5,0.3-5,1.1-7.3
			c0.4-1.2,0.9-2.3,1.3-3.4c0.6-1.1,1.1-2.2,1.7-3.2c2.6-4.1,6-7.6,9.8-10.6C282.6,101.7,291.6,98,300.5,94.8z"/>
	</g>
	<g>
		<g>
			<path class="st10" d="M546.4,146c-3.1,2.3-5.4,5.6-7.3,9c-1.9,3.4-3.3,7-4.9,10.5c-3.2,7-7,13.9-12.3,19.7
				c-2.6,2.9-5.7,5.4-9,7.4c-3.3,2.1-6.8,3.8-9.8,6.1c-3,2.3-5.4,5.4-7.2,8.7c-1.8,3.4-2.9,7.1-3.6,10.8c-0.7,3.8-1,7.6-0.6,11.4
				c0.4,3.7,1.4,7.4,3.6,10.4c1.1,1.5,2.4,2.7,3.9,3.8c1.5,1,3.2,1.8,4.9,2.5c3.5,1.3,7.2,1.9,11.1,2.4c3.8,0.5,7.7,0.8,11.6,1.6
				c2,0.4,3.9,1,5.8,1.8c1.9,0.8,3.7,1.7,5.4,2.7c3.4,2,6.6,4.2,9.9,6c3.3,1.8,6.8,3,10.4,3.5c7.3,0.8,14.9-1.3,21.2-5.3
				c1.6-1,3-2.2,4.5-3.3c1.4-1.3,2.7-2.6,4-4c2.5-2.8,4.6-6,6.4-9.3c3.6-6.7,5.9-14.1,7.3-21.6c1.4-7.5,1.8-15.3,1.1-22.9
				c-0.4-3.8-0.9-7.6-1.9-11.3c-1-3.7-2.5-7.3-4.8-10.3c-2.3-3-5.3-5.6-7.7-8.7c-2.4-3.1-3.9-6.8-5.2-10.4c-1.4-3.6-2.8-7.3-5-10.4
				c-1.1-1.6-2.4-3-4-4.1c-1.6-1.1-3.4-1.8-5.3-2.1c-1.9-0.3-3.9-0.2-5.8,0.2c-1,0.2-1.9,0.4-2.8,0.7l-2.8,0.6
				C553.4,142.7,549.6,143.6,546.4,146z M546.4,146c3.1-2.4,7-3.3,10.8-4.2l2.8-0.7c0.9-0.2,1.9-0.5,2.8-0.7
				c1.9-0.4,3.9-0.5,5.8-0.2c1.9,0.3,3.8,0.9,5.4,2c1.6,1.1,3,2.5,4.1,4.1c2.3,3.2,3.8,6.8,5.2,10.4c1.4,3.6,3,7.2,5.4,10.2
				c2.4,3,5.4,5.4,7.9,8.5c2.5,3.1,4.2,6.8,5.3,10.5c1.1,3.8,1.8,7.6,2.3,11.5c0.9,7.8,0.7,15.7-0.5,23.4c-1.2,7.7-3.4,15.4-7,22.5
				c-1.8,3.5-4,6.9-6.6,9.9c-1.3,1.5-2.7,3-4.2,4.3c-1.5,1.3-3.1,2.6-4.8,3.7c-6.7,4.4-14.9,6.7-23.1,5.8c-1-0.2-2-0.3-3-0.5
				c-1-0.2-2-0.5-3-0.8c-1.9-0.7-3.8-1.5-5.5-2.5c-3.5-1.9-6.7-4.2-10-6.1c-1.6-1-3.3-1.9-5-2.6c-1.7-0.7-3.5-1.3-5.3-1.7
				c-3.7-0.9-7.5-1.2-11.4-1.8c-3.9-0.5-7.8-1.3-11.6-2.8c-1.9-0.8-3.7-1.7-5.4-2.9c-1.7-1.2-3.2-2.7-4.3-4.3
				c-2.4-3.4-3.4-7.5-3.7-11.4c-0.3-4,0.1-7.9,0.9-11.8c0.8-3.9,2-7.6,3.9-11.1c1.9-3.5,4.5-6.6,7.7-8.9c3.2-2.3,6.7-4,10-6
				c3.3-1.9,6.4-4.3,9-7.2c5.3-5.6,9.2-12.4,12.5-19.4c1.6-3.5,3.1-7.1,5-10.5C540.9,151.5,543.3,148.3,546.4,146z"/>
		</g>
	</g>
	<path class="st12" d="M98.5,88.1c-1-4.9-5.7-8.1-10.6-7.2c-4.9,1-8.1,5.7-7.2,10.6c1,4.9,5.7,8.1,10.6,7.2
		C96.2,97.8,99.4,93.1,98.5,88.1z M89.2,86.4c-0.3-1.8,0.8-3.5,2.6-3.8c1.8-0.3,3.5,0.8,3.8,2.6c0.3,1.8-0.8,3.5-2.6,3.8
		C91.3,89.3,89.6,88.1,89.2,86.4z M96.3,91.6c-0.7,0.1-1.4-0.3-1.6-1.1c-0.1-0.7,0.3-1.4,1.1-1.6c0.7-0.1,1.4,0.3,1.6,1.1
		C97.5,90.8,97,91.5,96.3,91.6z"/>
</g>
</svg>
